<?xml version="1.0" encoding="UTF-8" standalone="no"?>
<!-- Created with Inkscape (http://www.inkscape.org/) -->

<svg
   xmlns:osb="http://www.openswatchbook.org/uri/2009/osb"
   xmlns:dc="http://purl.org/dc/elements/1.1/"
   xmlns:cc="http://creativecommons.org/ns#"
   xmlns:rdf="http://www.w3.org/1999/02/22-rdf-syntax-ns#"
   xmlns:svg="http://www.w3.org/2000/svg"
   xmlns="http://www.w3.org/2000/svg"
   xmlns:sodipodi="http://sodipodi.sourceforge.net/DTD/sodipodi-0.dtd"
   xmlns:inkscape="http://www.inkscape.org/namespaces/inkscape"
   width="744.09448819"
   height="1052.3622047"
   id="svg8805"
   version="1.1"
   inkscape:version="0.91 r13725"
   sodipodi:docname="234-1.0-4HP-panel.svg">
  <defs
     id="defs8807">
    <linearGradient
       id="linearGradient5359"
       osb:paint="solid">
      <stop
         style="stop-color:#ff0000;stop-opacity:1;"
         offset="0"
         id="stop5361" />
    </linearGradient>
  </defs>
  <sodipodi:namedview
     id="base"
     pagecolor="#ffffff"
     bordercolor="#666666"
     borderopacity="1.0"
     inkscape:pageopacity="0.0"
     inkscape:pageshadow="2"
     inkscape:zoom="2.5016463"
     inkscape:cx="454.18571"
     inkscape:cy="332.18448"
     inkscape:document-units="px"
     inkscape:current-layer="layer3"
     showgrid="true"
     inkscape:snap-center="false"
     inkscape:snap-object-midpoints="true"
     inkscape:snap-to-guides="false"
     inkscape:snap-grids="true"
     inkscape:snap-midpoints="false"
     inkscape:window-width="1545"
     inkscape:window-height="1313"
     inkscape:window-x="97"
     inkscape:window-y="21"
     inkscape:window-maximized="0"
     inkscape:snap-nodes="true"
     inkscape:snap-bbox="false"
     inkscape:snap-bbox-midpoints="true"
     inkscape:snap-global="true"
     gridtolerance="4">
    <inkscape:grid
       type="xygrid"
       id="grid8813"
       empspacing="4"
       visible="true"
       enabled="true"
       snapvisiblegridlinesonly="false"
       units="in"
       spacingx="0.025in"
       spacingy="0.025in"
       color="#f700f9"
       opacity="0.1254902"
       dotted="true" />
  </sodipodi:namedview>
  <metadata
     id="metadata8810">
    <rdf:RDF>
      <cc:Work
         rdf:about="">
        <dc:format>image/svg+xml</dc:format>
        <dc:type
           rdf:resource="http://purl.org/dc/dcmitype/StillImage" />
        <dc:title />
      </cc:Work>
    </rdf:RDF>
  </metadata>
  <g
     inkscape:label="6HP panel"
     inkscape:groupmode="layer"
     id="layer1"
     style="display:inline">
    <g
       id="g4642">
      <rect
         style="fill:none;stroke:#0000ff;stroke-width:0.28913751;stroke-miterlimit:4;stroke-dasharray:none;stroke-opacity:1"
         id="rect3093"
         width="71.743401"
         height="456.60999"
         x="396.1283"
         y="507.86218" />
      <circle
         id="path3097"
         style="fill:none;stroke:#0000ff;stroke-width:0.35433072;stroke-miterlimit:4;stroke-dasharray:none;stroke-opacity:1"
         cx="422.96008"
         cy="519.17468"
         r="5.625" />
      <circle
         style="fill:none;stroke:#0000ff;stroke-width:0.35433072;stroke-miterlimit:4;stroke-dasharray:none;stroke-opacity:1"
         id="path3099"
         cx="423"
         cy="953.36218"
         r="5.625" />
    </g>
    <path
       style="fill:none;fill-rule:evenodd;stroke:#000000;stroke-width:0.99983793px;stroke-linecap:butt;stroke-linejoin:miter;stroke-opacity:1"
       d="m 513,520.30754 0,434.10928"
       id="path5597"
       inkscape:connector-curvature="0" />
  </g>
  <g
     inkscape:groupmode="layer"
     id="layer3"
     inkscape:label="FP LASER HOLES"
     style="display:inline">
    <text
       xml:space="preserve"
       style="font-style:normal;font-variant:normal;font-weight:normal;font-stretch:normal;font-size:20px;line-height:125%;font-family:'Averia Sans';-inkscape-font-specification:'Averia Sans';letter-spacing:0px;word-spacing:0px;fill:#000000;fill-opacity:1;stroke:none"
       x="352.21191"
       y="792.32202"
       id="text9904"
       sodipodi:linespacing="125%"><tspan
         sodipodi:role="line"
         id="tspan9906"
         x="352.21191"
         y="792.32202" /></text>
    <ellipse
       ry="10.673117"
       rx="10.673118"
       cy="899.36218"
       cx="432"
       id="ellipse4420"
       style="display:inline;fill:none;stroke:#0000ff;stroke-width:0.35433072;stroke-miterlimit:4;stroke-dasharray:none;stroke-opacity:1" />
    <ellipse
       ry="12.247839"
       rx="12.24784"
       cy="701.36218"
       cx="213.75"
       id="ellipse4422"
       style="display:inline;fill:none;stroke:#0000ff;stroke-width:0.35433072;stroke-miterlimit:4;stroke-dasharray:none;stroke-opacity:1" />
    <ellipse
       style="display:inline;fill:none;stroke:#0000ff;stroke-width:0.35433072;stroke-miterlimit:4;stroke-dasharray:none;stroke-opacity:1"
       id="ellipse5434"
       cx="432"
       cy="854.36218"
       rx="10.673118"
       ry="10.673117" />
    <ellipse
       style="display:inline;fill:none;stroke:#0000ff;stroke-width:0.35433072;stroke-miterlimit:4;stroke-dasharray:none;stroke-opacity:1"
       id="ellipse5436"
       cx="191.25"
       cy="692.36218"
       rx="12.24784"
       ry="12.247839" />
    <ellipse
       ry="12.247839"
       rx="12.24784"
       cy="667.61218"
       cx="198"
       id="ellipse5438"
       style="display:inline;fill:none;stroke:#0000ff;stroke-width:0.35433072;stroke-miterlimit:4;stroke-dasharray:none;stroke-opacity:1" />
    <circle
       style="display:inline;fill:none;stroke:#0000ff;stroke-width:0.35433072;stroke-miterlimit:4;stroke-dasharray:none;stroke-opacity:1"
       id="ellipse5442"
       cx="261"
       cy="649.61218"
       r="10.418927" />
    <ellipse
       style="display:inline;fill:none;stroke:#0000ff;stroke-width:0.35433072;stroke-miterlimit:4;stroke-dasharray:none;stroke-opacity:1"
       id="ellipse5435"
       cx="198"
       cy="723.86218"
       rx="12.24784"
       ry="12.247839" />
    <circle
       cy="665.36218"
       cx="258.75"
       id="ellipse5437"
       style="display:inline;fill:none;stroke:#0000ff;stroke-width:0.35433072;stroke-miterlimit:4;stroke-dasharray:none;stroke-opacity:1"
       r="10.418927" />
    <circle
       style="display:inline;fill:none;stroke:#0000ff;stroke-width:0.35433072;stroke-miterlimit:4;stroke-dasharray:none;stroke-opacity:1"
       id="ellipse5439"
       cx="270"
       cy="681.11218"
       r="10.418927" />
    <circle
       cy="777.86218"
       cx="414"
       id="ellipse5441"
       style="display:inline;fill:none;stroke:#0000ff;stroke-width:0.35433072;stroke-miterlimit:4;stroke-dasharray:none;stroke-opacity:1"
       r="5.2094636" />
    <ellipse
       ry="10.673117"
       rx="10.673118"
       cy="809.36218"
       cx="432"
       id="ellipse5508"
       style="display:inline;fill:none;stroke:#0000ff;stroke-width:0.35433072;stroke-miterlimit:4;stroke-dasharray:none;stroke-opacity:1" />
    <ellipse
       style="display:inline;fill:none;stroke:#0000ff;stroke-width:0.29645288;stroke-miterlimit:4;stroke-dasharray:none;stroke-opacity:1"
       id="ellipse5514"
       cx="414"
       cy="651.86218"
       rx="8.9297266"
       ry="8.9297256" />
    <ellipse
       ry="10.673117"
       rx="10.673118"
       cy="730.61218"
       cx="310.5"
       id="ellipse5516"
       style="display:inline;fill:none;stroke:#0000ff;stroke-width:0.35433072;stroke-miterlimit:4;stroke-dasharray:none;stroke-opacity:1" />
    <ellipse
       style="display:inline;fill:none;stroke:#0000ff;stroke-width:0.35433072;stroke-miterlimit:4;stroke-dasharray:none;stroke-opacity:1"
       id="ellipse5518"
       cx="308.25"
       cy="717.11218"
       rx="10.673118"
       ry="10.673117" />
    <ellipse
       ry="10.673117"
       rx="10.673118"
       cy="705.86218"
       cx="299.25"
       id="ellipse5520"
       style="display:inline;fill:none;stroke:#0000ff;stroke-width:0.35433072;stroke-miterlimit:4;stroke-dasharray:none;stroke-opacity:1" />
    <circle
       cy="759.86218"
       cx="414"
       id="circle5528"
       style="display:inline;fill:none;stroke:#0000ff;stroke-width:0.35433072;stroke-miterlimit:4;stroke-dasharray:none;stroke-opacity:1"
       r="5.2094636" />
    <circle
       r="5.2094636"
       style="display:inline;fill:none;stroke:#0000ff;stroke-width:0.35433072;stroke-miterlimit:4;stroke-dasharray:none;stroke-opacity:1"
       id="circle5530"
       cx="414"
       cy="741.86218" />
    <circle
       cy="710.36218"
       cx="414"
       id="circle5532"
       style="display:inline;fill:none;stroke:#0000ff;stroke-width:0.35433072;stroke-miterlimit:4;stroke-dasharray:none;stroke-opacity:1"
       r="5.2094636" />
    <circle
       r="5.2094636"
       style="display:inline;fill:none;stroke:#0000ff;stroke-width:0.35433072;stroke-miterlimit:4;stroke-dasharray:none;stroke-opacity:1"
       id="circle5534"
       cx="414"
       cy="683.36218" />
    <circle
       cy="620.36218"
       cx="414"
       id="circle5536"
       style="display:inline;fill:none;stroke:#0000ff;stroke-width:0.35433072;stroke-miterlimit:4;stroke-dasharray:none;stroke-opacity:1"
       r="5.2094636" />
    <circle
       r="5.2094636"
       style="display:inline;fill:none;stroke:#0000ff;stroke-width:0.35433072;stroke-miterlimit:4;stroke-dasharray:none;stroke-opacity:1"
       id="circle5538"
       cx="281.25"
       cy="629.36218" />
    <ellipse
       ry="8.9297256"
       rx="8.9297266"
       cy="694.61218"
       cx="308.25"
       id="ellipse6292"
       style="display:inline;fill:none;stroke:#0000ff;stroke-width:0.29645288;stroke-miterlimit:4;stroke-dasharray:none;stroke-opacity:1" />
    <path
       style="fill:none;fill-opacity:1;stroke:#ff0000;stroke-width:0.35433072;stroke-miterlimit:4;stroke-dasharray:none;stroke-opacity:1"
       id="path6294"
       sodipodi:type="arc"
       sodipodi:cx="414"
       sodipodi:cy="710.36218"
       sodipodi:rx="9"
       sodipodi:ry="9"
       sodipodi:start="0.78539816"
       sodipodi:end="5.4977871"
       d="m 420.36396,716.72614 a 9,9 0 0 1 -12.72792,0 9,9 0 0 1 0,-12.72792 9,9 0 0 1 12.72792,0"
       sodipodi:open="true" />
    <path
       sodipodi:open="true"
       d="m 423.54594,661.40812 a 13.5,13.5 0 0 1 -19.09188,0 13.5,13.5 0 0 1 0,-19.09188 13.5,13.5 0 0 1 19.09188,0"
       sodipodi:end="5.4977871"
       sodipodi:start="0.78539816"
       sodipodi:ry="13.5"
       sodipodi:rx="13.5"
       sodipodi:cy="651.86218"
       sodipodi:cx="414"
       sodipodi:type="arc"
       id="path6296"
       style="fill:none;fill-opacity:1;stroke:#ff0000;stroke-width:0.53149605;stroke-miterlimit:4;stroke-dasharray:none;stroke-opacity:1" />
  </g>
  <g
     inkscape:groupmode="layer"
     id="layer4"
     inkscape:label="Engravings"
     style="display:inline">
    <text
       xml:space="preserve"
       style="font-style:normal;font-variant:normal;font-weight:normal;font-stretch:normal;font-size:20px;line-height:125%;font-family:'Averia Sans';-inkscape-font-specification:'Averia Sans';letter-spacing:0px;word-spacing:0px;fill:#000000;fill-opacity:1;stroke:#ff0000;stroke-width:0.03543307;stroke-miterlimit:4;stroke-dasharray:none;stroke-opacity:1"
       x="345.08755"
       y="796.32947"
       id="text9913"
       sodipodi:linespacing="125%"><tspan
         sodipodi:role="line"
         id="tspan9915"
         x="345.08755"
         y="796.32947" /></text>
    <text
       xml:space="preserve"
       style="font-style:normal;font-variant:normal;font-weight:normal;font-stretch:normal;font-size:12px;line-height:125%;font-family:'C64 User';-inkscape-font-specification:'C64 User';letter-spacing:0px;word-spacing:0px;fill:#000000;fill-opacity:1;stroke:none"
       x="499.66638"
       y="626.3988"
       id="text3966"
       sodipodi:linespacing="125%"><tspan
         sodipodi:role="line"
         id="tspan3968"
         x="499.66638"
         y="626.3988" /></text>
    <path
       style="fill:none;stroke:#ff0000;stroke-width:0.28265813;stroke-miterlimit:4;stroke-dasharray:none;stroke-opacity:1"
       d="m 400.5,935.36218 63,0"
       id="path11004"
       inkscape:connector-curvature="0" />
    <path
       style="fill:none;stroke:#ff0000;stroke-width:0.15846151;stroke-miterlimit:4;stroke-dasharray:none;stroke-opacity:1"
       d="m 400.5,534.86218 4.5,0"
       id="path11006"
       inkscape:connector-curvature="0" />
    <text
       xml:space="preserve"
       style="font-style:normal;font-variant:normal;font-weight:normal;font-stretch:normal;font-size:20px;line-height:125%;font-family:'My Underwood';-inkscape-font-specification:'My Underwood';letter-spacing:0px;word-spacing:0px;fill:#000000;fill-opacity:1;stroke:none;stroke-width:1px;stroke-linecap:butt;stroke-linejoin:miter;stroke-opacity:1"
       x="371.78259"
       y="712.60486"
       id="text4491"
       sodipodi:linespacing="125%"><tspan
         sodipodi:role="line"
         id="tspan4493"
         x="371.78259"
         y="712.60486" /></text>
    <text
       xml:space="preserve"
       style="font-style:normal;font-variant:normal;font-weight:normal;font-stretch:normal;font-size:20px;line-height:125%;font-family:'My Underwood';-inkscape-font-specification:'My Underwood';letter-spacing:0px;word-spacing:0px;fill:#000000;fill-opacity:1;stroke:none;stroke-width:1px;stroke-linecap:butt;stroke-linejoin:miter;stroke-opacity:1"
       x="376.28259"
       y="730.60486"
       id="text4568"
       sodipodi:linespacing="125%"><tspan
         sodipodi:role="line"
         id="tspan4570"
         x="376.28259"
         y="730.60486" /></text>
    <text
       xml:space="preserve"
       style="font-style:normal;font-variant:normal;font-weight:normal;font-stretch:normal;font-size:20px;line-height:125%;font-family:'My Underwood';-inkscape-font-specification:'My Underwood';letter-spacing:0px;word-spacing:0px;fill:#000000;fill-opacity:1;stroke:none;stroke-width:1px;stroke-linecap:butt;stroke-linejoin:miter;stroke-opacity:1"
       x="267.75"
       y="660.86218"
       id="text5450"
       sodipodi:linespacing="125%"><tspan
         sodipodi:role="line"
         id="tspan5452"
         x="267.75"
         y="660.86218" /></text>
    <text
       xml:space="preserve"
       style="font-style:normal;font-variant:normal;font-weight:normal;font-stretch:normal;font-size:20px;line-height:125%;font-family:'My Underwood';-inkscape-font-specification:'My Underwood';letter-spacing:0px;word-spacing:0px;fill:#000000;fill-opacity:1;stroke:none;stroke-width:1px;stroke-linecap:butt;stroke-linejoin:miter;stroke-opacity:1"
       x="535.64642"
       y="610.21472"
       id="text5487"
       sodipodi:linespacing="125%"><tspan
         sodipodi:role="line"
         id="tspan5489"
         x="535.64642"
         y="610.21472">My Underwood 16pt</tspan></text>
    <text
       sodipodi:linespacing="125%"
       id="text5491"
       y="632.54181"
       x="535.61432"
       style="font-style:normal;font-variant:normal;font-weight:normal;font-stretch:normal;font-size:15px;line-height:125%;font-family:'My Underwood';-inkscape-font-specification:'My Underwood';letter-spacing:0px;word-spacing:0px;fill:#000000;fill-opacity:1;stroke:none;stroke-width:1px;stroke-linecap:butt;stroke-linejoin:miter;stroke-opacity:1"
       xml:space="preserve"><tspan
         y="632.54181"
         x="535.61432"
         id="tspan5493"
         sodipodi:role="line">My Underwood 12pt</tspan></text>
    <text
       xml:space="preserve"
       style="font-style:normal;font-variant:normal;font-weight:normal;font-stretch:normal;font-size:12.5px;line-height:125%;font-family:'My Underwood';-inkscape-font-specification:'My Underwood';letter-spacing:0px;word-spacing:0px;fill:#000000;fill-opacity:1;stroke:none;stroke-width:1px;stroke-linecap:butt;stroke-linejoin:miter;stroke-opacity:1"
       x="536.03326"
       y="654.28784"
       id="text5495"
       sodipodi:linespacing="125%"><tspan
         sodipodi:role="line"
         id="tspan5497"
         x="536.03326"
         y="654.28784">My Underwood 10pt</tspan></text>
    <path
       inkscape:connector-curvature="0"
       id="path5539"
       d="m 432,534.86218 31.5,0"
       style="fill:none;stroke:#ff0000;stroke-width:0.41924977;stroke-miterlimit:4;stroke-dasharray:none;stroke-opacity:1" />
    <g
       id="g4469"
       transform="matrix(0.20000006,0,0,0.20000006,411.29999,779.7897)"
       style="display:inline;stroke:#ff0000;stroke-width:1.77165306;stroke-miterlimit:4;stroke-dasharray:none;stroke-opacity:1">
      <path
         inkscape:connector-curvature="0"
         id="path4463"
         d="m 153,800.36218 0,90 54,0 0,-9 -45,0 0,-81 z"
         style="fill:none;fill-rule:evenodd;stroke:#ff0000;stroke-width:1.77165306;stroke-linecap:butt;stroke-linejoin:miter;stroke-miterlimit:4;stroke-dasharray:none;stroke-opacity:1" />
      <path
         inkscape:connector-curvature="0"
         id="path4465"
         d="m 171,800.36218 0,9 45,0 0,81 9,0 0,-90 z"
         style="fill:none;fill-rule:evenodd;stroke:#ff0000;stroke-width:1.77165306;stroke-linecap:butt;stroke-linejoin:miter;stroke-miterlimit:4;stroke-dasharray:none;stroke-opacity:1" />
      <path
         inkscape:connector-curvature="0"
         id="path4467"
         d="m 234,800.36218 0,90 9,0 0,-90 z"
         style="fill:none;fill-rule:evenodd;stroke:#ff0000;stroke-width:1.77165306;stroke-linecap:butt;stroke-linejoin:miter;stroke-miterlimit:4;stroke-dasharray:none;stroke-opacity:1" />
    </g>
    <g
       style="font-style:normal;font-variant:normal;font-weight:normal;font-stretch:normal;font-size:20px;line-height:125%;font-family:'My Underwood';-inkscape-font-specification:'My Underwood';letter-spacing:0px;word-spacing:0px;fill:#000000;fill-opacity:1;stroke:none;stroke-width:1px;stroke-linecap:butt;stroke-linejoin:miter;stroke-opacity:1"
       id="text5578"
       transform="translate(101.26235,7.7137298)">
      <path
         d="m 434.13457,528.04131 q 0,1.68 0.1,3.48 0.12,1.78 0.76,3.62 0.26,-0.26 0.5,-0.14 0.24,0.12 0.46,0.36 0.22,0.24 0.44,0.46 0.24,0.22 0.5,0.16 0.06,0.26 -0.02,0.42 -0.06,0.14 -0.22,0.24 -0.14,0.1 -0.32,0.18 -0.16,0.08 -0.28,0.2 l -1.22,0.18 q -0.26,0.64 -0.18,1 0.08,0.34 0.34,0.54 0.26,0.18 0.62,0.28 0.38,0.08 0.72,0.22 0.34,0.12 0.56,0.36 0.22,0.22 0.18,0.7 -0.78,0 -1.54,0.1 -0.76,0.1 -1.54,0.18 -0.76,0.08 -1.58,0.08 -0.82,0 -1.72,-0.18 -0.22,-0.56 -0.06,-0.82 0.18,-0.28 0.52,-0.42 0.36,-0.14 0.8,-0.22 0.46,-0.08 0.78,-0.26 0.34,-0.18 0.48,-0.52 0.14,-0.36 -0.12,-1.04 -0.56,-0.18 -1.12,-0.22 -0.56,-0.04 -1.12,-0.02 -0.54,0 -1.06,0.02 -0.52,0.02 -1.04,-0.02 -0.5,-0.06 -0.98,-0.24 -0.46,-0.18 -0.88,-0.56 0.78,-1.1 1.5,-2.26 0.74,-1.16 1.46,-2.3 0.72,-1.16 1.48,-2.28 0.76,-1.12 1.6,-2.16 0.26,-0.06 0.46,0.02 0.2,0.08 0.34,0.24 0.14,0.14 0.24,0.32 0.1,0.18 0.16,0.3 z m -1.38,2.42 q -0.46,0.32 -0.86,0.8 -0.4,0.46 -0.74,1 -0.32,0.52 -0.54,1.08 -0.2,0.56 -0.26,1.08 0.36,0.4 0.78,0.56 0.42,0.16 0.94,0.16 0.56,-0.22 0.78,-0.56 0.24,-0.34 0.26,-0.74 0.04,-0.42 -0.06,-0.86 -0.1,-0.44 -0.22,-0.88 -0.1,-0.46 -0.16,-0.88 -0.04,-0.42 0.08,-0.76 z"
         id="path4459"
         inkscape:connector-curvature="0" />
    </g>
    <g
       style="font-style:normal;font-variant:normal;font-weight:normal;font-stretch:normal;font-size:20px;line-height:125%;font-family:'My Underwood';-inkscape-font-specification:'My Underwood';letter-spacing:0px;word-spacing:0px;fill:#000000;fill-opacity:1;stroke:none;stroke-width:1px;stroke-linecap:butt;stroke-linejoin:miter;stroke-opacity:1"
       id="text4338"
       transform="translate(96.409375,11.862318)">
      <path
         d="m 439.57125,529.57424 q 0.92,0.06 1.92,0.02 1.02,-0.06 2.04,-0.06 1.02,0 2,0.1 0.98,0.1 1.82,0.44 -0.38,0.6 -1.04,0.78 -0.66,0.18 -1.42,0.2 -0.76,0 -1.54,-0.06 -0.78,-0.06 -1.4,0.08 -0.62,0.12 -1,0.54 -0.36,0.42 -0.32,1.38 0.84,0.2 1.72,0.18 0.9,-0.04 1.74,0 0.86,0.02 1.64,0.26 0.8,0.22 1.44,0.94 0.52,0.58 0.8,1.44 0.28,0.86 0.34,1.82 0.06,0.96 -0.06,1.92 -0.12,0.94 -0.38,1.72 -0.58,0.52 -1.22,1 -0.64,0.46 -1.34,0.76 -0.7,0.3 -1.46,0.4 -0.74,0.1 -1.52,-0.12 -0.58,0.08 -1.08,-0.12 -0.48,-0.18 -0.9,-0.5 -0.42,-0.32 -0.78,-0.7 -0.34,-0.4 -0.66,-0.72 -0.14,-0.9 0.04,-1.56 0.2,-0.68 0.96,-1.2 0.52,0.14 0.82,0.44 0.3,0.3 0.5,0.7 0.22,0.38 0.4,0.82 0.2,0.42 0.52,0.8 l 0,-0.86 q 0.34,-0.06 0.38,0.08 0.06,0.12 0,0.32 -0.04,0.18 -0.1,0.38 -0.04,0.2 0.1,0.26 0.44,-0.06 1.02,-0.18 0.58,-0.12 1.14,-0.32 0.58,-0.22 1.06,-0.54 0.5,-0.32 0.76,-0.82 0.18,-0.72 0.16,-1.5 0,-0.78 -0.24,-1.46 -0.24,-0.7 -0.74,-1.2 -0.5,-0.52 -1.28,-0.72 -0.52,-0.26 -1.02,-0.14 -0.48,0.1 -0.94,0.36 -0.46,0.26 -0.9,0.58 -0.44,0.32 -0.86,0.48 -0.42,0.16 -0.84,0.06 -0.4,-0.1 -0.78,-0.66 0.06,-0.7 0,-1.44 -0.04,-0.74 -0.06,-1.48 -0.02,-0.74 0.08,-1.46 0.1,-0.74 0.48,-1.44 z"
         id="path4456"
         inkscape:connector-curvature="0" />
    </g>
    <g
       style="font-style:normal;font-variant:normal;font-weight:normal;font-stretch:normal;font-size:20px;line-height:125%;font-family:'My Underwood';-inkscape-font-specification:'My Underwood';letter-spacing:0px;word-spacing:0px;fill:#000000;fill-opacity:1;stroke:none;stroke-width:1px;stroke-linecap:butt;stroke-linejoin:miter;stroke-opacity:1"
       id="text4342"
       transform="translate(97.91763,5.1748126)">
      <path
         d="m 459.06237,528.65787 q 0.06,0.76 0.3,1.52 0.24,0.76 0.36,1.5 0.12,0.72 -0.06,1.4 -0.16,0.68 -0.94,1.24 -0.14,0 -0.36,-0.2 -0.22,-0.2 -0.48,-0.36 -0.24,-0.16 -0.48,-0.16 -0.24,0 -0.44,0.38 l 0.68,0.52 -1.36,0 0.18,0 0,0.52 -0.18,0 q -0.18,-0.38 -0.34,-0.5 -0.16,-0.14 -0.34,-0.1 -0.16,0.02 -0.34,0.16 -0.18,0.12 -0.4,0.26 -0.22,0.12 -0.48,0.2 -0.24,0.08 -0.54,-0.02 l 0.36,0.68 q -0.38,-0.18 -0.68,-0.08 -0.3,0.08 -0.54,0.34 -0.24,0.24 -0.46,0.56 -0.2,0.32 -0.38,0.58 l 0.5,0.72 q -0.1,0 -0.3,-0.02 -0.2,-0.02 -0.2,-0.18 l -0.34,0.2 q 0.52,0.12 1.22,0.3 0.72,0.16 1.44,0.32 0.72,0.16 1.38,0.28 0.68,0.1 1.12,0.1 0.6,0 0.88,-0.12 0.3,-0.14 0.46,-0.38 0.16,-0.24 0.26,-0.6 0.1,-0.36 0.3,-0.82 -0.2,-0.06 -0.16,-0.14 0.04,-0.1 0.16,-0.2 0.14,-0.12 0.28,-0.24 0.16,-0.14 0.22,-0.28 0.54,0.2 0.76,0.58 0.24,0.38 0.32,0.86 0.08,0.48 0.08,1.06 0,0.56 0.06,1.14 -0.26,0.58 -0.62,0.76 -0.36,0.16 -0.78,0.22 -0.4,0.04 -0.8,0.12 -0.4,0.06 -0.74,0.44 -0.64,-0.18 -1.3,-0.58 -0.64,-0.42 -1.3,-0.72 -0.66,-0.3 -1.34,-0.34 -0.68,-0.06 -1.38,0.46 -0.2,0.18 -0.34,0.34 -0.14,0.16 -0.28,0.24 -0.14,0.08 -0.28,0.08 -0.14,-0.02 -0.32,-0.16 -0.26,-0.32 -0.38,-0.8 -0.12,-0.48 -0.14,-1 0,-0.54 0.04,-1.06 0.06,-0.54 0.14,-0.94 0.16,-0.78 0.6,-1.32 0.46,-0.54 1.06,-0.92 0.62,-0.4 1.32,-0.7 0.72,-0.3 1.4,-0.58 0.68,-0.28 1.26,-0.6 0.58,-0.32 0.94,-0.76 0.36,-0.44 0.42,-1.04 0.08,-0.62 -0.28,-1.5 -0.58,-0.66 -1.14,-0.78 -0.54,-0.14 -1.12,-0.06 -0.56,0.08 -1.16,0.24 -0.6,0.16 -1.26,0.1 0.2,0.12 0.4,0.44 0.22,0.32 0.32,0.74 0.1,0.4 0.04,0.82 -0.04,0.42 -0.36,0.76 -0.16,0.26 -0.38,0.36 -0.2,0.1 -0.44,0.1 -0.22,0 -0.44,-0.08 -0.2,-0.1 -0.34,-0.22 -0.46,-0.26 -0.54,-0.62 -0.08,-0.38 0,-0.8 0.1,-0.42 0.24,-0.84 0.14,-0.44 0.14,-0.82 0.9,-0.72 1.9,-1.1 1.02,-0.38 2.02,-0.4 1,-0.02 1.96,0.36 0.96,0.36 1.74,1.14 z"
         id="path4453"
         inkscape:connector-curvature="0" />
    </g>
    <g
       style="font-style:normal;font-variant:normal;font-weight:normal;font-stretch:normal;font-size:20px;line-height:125%;font-family:'My Underwood';-inkscape-font-specification:'My Underwood';letter-spacing:0px;word-spacing:0px;fill:#000000;fill-opacity:1;stroke:none;stroke-width:1px;stroke-linecap:butt;stroke-linejoin:miter;stroke-opacity:1"
       id="text4346"
       transform="translate(83.224339,10.189979)">
      <path
         d="m 470.90738,530.02887 q 0.58,1.04 1.14,2.04 0.56,1 0.88,1.98 0.32,0.96 0.3,1.9 -0.02,0.94 -0.62,1.84 0.2,0.4 0.08,0.86 -0.1,0.46 -0.34,0.94 -0.24,0.48 -0.52,0.96 -0.28,0.46 -0.42,0.86 -0.58,0.64 -1.3,0.98 -0.72,0.34 -1.5,0.42 -0.78,0.08 -1.56,-0.08 -0.78,-0.14 -1.5,-0.46 -0.78,-0.52 -1.36,-1.24 -0.56,-0.74 -0.9,-1.6 -0.34,-0.88 -0.44,-1.86 -0.08,-1 0.1,-2.04 -0.06,-0.9 0.16,-1.86 0.22,-0.98 0.68,-1.86 0.48,-0.88 1.18,-1.62 0.72,-0.74 1.62,-1.18 0.58,0.12 1.16,0.18 0.58,0.04 1.12,0.12 0.56,0.08 1.06,0.24 0.52,0.16 0.98,0.48 z m -2.76,0.84 q -0.52,0.14 -0.68,0.28 -0.16,0.12 -0.26,0.26 -0.1,0.12 -0.28,0.24 -0.18,0.12 -0.7,0.24 -0.32,0.8 -0.68,1.64 -0.36,0.84 -0.58,1.7 -0.2,0.86 -0.16,1.72 0.06,0.86 0.58,1.7 0.52,-0.04 0.84,0.12 0.34,0.16 0.58,0.42 0.24,0.26 0.4,0.58 0.18,0.32 0.36,0.58 0.2,0.26 0.44,0.42 0.26,0.16 0.64,0.12 0.7,-0.84 1.22,-1.78 0.54,-0.94 0.8,-1.96 0.26,-1.02 0.2,-2.1 -0.04,-1.1 -0.48,-2.26 -0.12,-0.52 -0.44,-0.72 -0.32,-0.2 -0.68,-0.3 -0.36,-0.12 -0.68,-0.28 -0.32,-0.16 -0.44,-0.62 z"
         id="path4450"
         inkscape:connector-curvature="0" />
    </g>
    <g
       style="font-style:normal;font-variant:normal;font-weight:normal;font-stretch:normal;font-size:12.5px;line-height:125%;font-family:'My Underwood';-inkscape-font-specification:'My Underwood';letter-spacing:0px;word-spacing:0px;fill:#000000;fill-opacity:1;stroke:none;stroke-width:1px;stroke-linecap:butt;stroke-linejoin:miter;stroke-opacity:1"
       id="text4647">
      <path
         d="m 404.8053,915.89716 2.58789,0 0,0.8728 -1.46485,0 0,9.39941 1.46485,0 0,0.87281 -2.58789,0 0,-11.14502 z"
         id="path4726"
         inkscape:connector-curvature="0" />
      <path
         d="m 409.63889,919.73173 q 0.3,-0.35 0.7,-0.55 0.4125,-0.2 0.85,-0.25 0.45,-0.0625 0.9,0.025 0.45,0.0875 0.8375,0.3 0.4,0.2125 0.7,0.5625 0.3,0.3375 0.4375,0.8 0.0375,0.2375 0,0.4875 -0.0375,0.25 -0.1625,0.4625 -0.125,0.2 -0.3375,0.3375 -0.2,0.125 -0.475,0.125 -0.375,-0.025 -0.55,-0.225 -0.1625,-0.2125 -0.225,-0.4875 -0.0625,-0.275 -0.1,-0.5625 -0.025,-0.3 -0.125,-0.525 -0.1,-0.225 -0.3375,-0.3125 -0.2375,-0.1 -0.725,0.0375 -0.3625,0.2125 -0.6625,0.55 -0.3,0.3375 -0.5,0.7625 -0.1875,0.425 -0.2375,0.9125 -0.0375,0.4875 0.125,1.0125 0.325,0.575 0.7875,0.85 0.475,0.275 1.0375,0.4375 0.325,0 0.625,-0.1625 0.3,-0.1625 0.5625,-0.4125 0.2625,-0.25 0.475,-0.55 0.225,-0.3 0.3875,-0.5875 0.325,0.075 0.4125,0.3125 0.0875,0.225 0.0625,0.5 -0.0125,0.275 -0.0875,0.5375 -0.0625,0.25 -0.0625,0.3625 -0.25,0.2875 -0.5625,0.525 -0.3125,0.2375 -0.675,0.3875 -0.3625,0.15 -0.7625,0.2 -0.4,0.0625 -0.8,-0.025 -0.525,-0.0375 -0.8375,-0.2875 -0.3125,-0.25 -0.5375,-0.5875 -0.225,-0.35 -0.425,-0.725 -0.1875,-0.375 -0.4625,-0.6625 0,-0.4125 -0.0375,-0.9 -0.025,-0.5 0.0125,-1 0.0375,-0.5 0.2,-0.9375 0.175,-0.4375 0.575,-0.7375 z"
         id="path4728"
         inkscape:connector-curvature="0" />
      <path
         d="m 416.31135,916.99423 q 0.2125,0.125 0.4,0.1 0.1875,-0.025 0.3625,-0.0375 0.175,-0.025 0.3375,0.0375 0.1625,0.05 0.325,0.3375 0.0375,0.725 0,1.6125 -0.0375,0.875 -0.05,1.825 0,0.9375 0.0625,1.8875 0.0625,0.9375 0.3,1.7875 0.4125,0 0.8125,0 0.4,-0.0125 0.7625,0.025 0.3625,0.0375 0.675,0.1625 0.325,0.1125 0.5625,0.35 -0.075,0.2375 -0.3125,0.3625 -0.225,0.125 -0.55,0.1625 -0.3125,0.0375 -0.6875,0.025 -0.3625,-0.0125 -0.7375,-0.0375 -0.3625,-0.0125 -0.7,-0.025 -0.325,0 -0.5625,0.05 -0.25,-0.0375 -0.5625,-0.0875 -0.3125,-0.0375 -0.6625,-0.0875 -0.35,-0.05 -0.7,-0.1125 -0.35,-0.0625 -0.6625,-0.15 0.025,-0.2625 0.2,-0.375 0.1875,-0.1125 0.4375,-0.15 0.25,-0.0375 0.525,-0.0375 0.275,0 0.475,-0.05 0.2125,-0.0625 0.3,-0.2 0.1,-0.15 0,-0.475 l 0.3125,-0.2125 q -0.075,-0.45 -0.075,-0.975 0.0125,-0.525 0.0375,-1.0625 0.0375,-0.55 0.05,-1.0875 0.025,-0.55 -0.05,-1.05 -0.0625,-0.5125 -0.25,-0.9625 -0.1875,-0.45 -0.5625,-0.8 -0.175,0.125 -0.3375,0.1375 -0.1625,0 -0.325,-0.05 -0.1625,-0.0625 -0.325,-0.175 -0.15,-0.1125 -0.3125,-0.225 0.0875,-0.125 0.25,-0.1875 0.175,-0.075 0.3875,-0.1125 0.2125,-0.0375 0.4375,-0.0625 0.225,-0.0375 0.4125,-0.075 z"
         id="path4730"
         inkscape:connector-curvature="0" />
      <path
         d="m 421.63831,917.10673 q 0.2875,-0.0375 0.5625,-0.025 0.2875,0 0.5,0.1 0.2125,0.1 0.3125,0.3125 0.1,0.2125 0.025,0.575 0.0375,0.45 -0.0125,0.825 -0.0375,0.375 -0.075,0.7375 -0.0375,0.3625 -0.0375,0.7375 0,0.375 0.125,0.825 0.3625,0.125 0.65,0.0375 0.2875,-0.1 0.525,-0.3 0.25,-0.2125 0.45,-0.4625 0.2125,-0.2625 0.4125,-0.4625 -0.2375,-0.125 -0.25,-0.275 0,-0.15 0.1125,-0.2875 0.1125,-0.15 0.2875,-0.2625 0.175,-0.1125 0.3,-0.15 0.2625,0.2125 0.55,0.25 0.2875,0.0375 0.575,0 0.3,-0.0375 0.5875,-0.0875 0.2875,-0.05 0.5375,-0.0125 0.2625,0.0375 0.4875,0.225 0.225,0.175 0.3875,0.6 -1.4,0 -2.35,0.475 -0.9375,0.475 -1.4375,1.375 0.2875,0.2 0.45,0.4375 0.175,0.2375 0.2875,0.475 0.125,0.2375 0.2375,0.475 0.125,0.2375 0.325,0.4375 l 0.1,-0.1125 q 0.125,0.2875 0.425,0.475 0.3125,0.175 0.65,0.375 0.35,0.1875 0.65,0.4375 0.3125,0.25 0.4375,0.65 -0.4,0 -0.875,0.0125 -0.4625,0.0125 -0.925,-0.0125 -0.4625,-0.0125 -0.9,-0.0875 -0.425,-0.075 -0.7625,-0.2375 -0.0375,-0.1125 0.025,-0.2125 0.0625,-0.1125 0.1625,-0.2 0.1125,-0.0875 0.2125,-0.175 0.1125,-0.0875 0.1625,-0.1625 0.0375,-0.325 -0.125,-0.5625 -0.1625,-0.2375 -0.4,-0.4625 -0.2375,-0.225 -0.4625,-0.45 -0.225,-0.2375 -0.3125,-0.5625 l -0.1125,0.1 q -0.0375,0.1125 -0.0375,0.1 0.0125,-0.025 0.0125,-0.0875 0,-0.075 -0.0375,-0.15 -0.025,-0.075 -0.15,-0.075 -0.075,0.075 -0.2875,0.1875 -0.2125,0.1 -0.4,0.25 -0.175,0.15 -0.2625,0.3625 -0.0875,0.2 0.0875,0.4875 -0.0375,0.2875 0.025,0.45 0.0625,0.15 0.1875,0.275 0.125,0.125 0.275,0.25 0.15,0.125 0.275,0.325 l 0.1,-0.1125 q 0.125,-0.125 0.225,-0.0625 0.1125,0.05 0.175,0.2 0.0625,0.1375 0.05,0.3125 -0.0125,0.175 -0.125,0.3 -0.45,-0.1625 -0.9125,-0.15 -0.4625,0 -0.875,0.0125 -0.4,0 -0.7,-0.05 -0.3,-0.0625 -0.425,-0.35 0.5875,-0.0875 0.85,-0.35 0.275,-0.275 0.3375,-0.6625 0.075,-0.3875 0.0125,-0.85 -0.0625,-0.475 -0.125,-0.9625 -0.0625,-0.4875 -0.075,-0.95 0,-0.475 0.1875,-0.85 0.0375,-0.45 -0.0125,-0.9 -0.0375,-0.4625 -0.15,-0.8875 -0.1125,-0.425 -0.2875,-0.7875 -0.175,-0.375 -0.4125,-0.6625 z"
         id="path4732"
         inkscape:connector-curvature="0" />
      <path
         d="m 440.77991,920.54423 q 0.0875,0.45 0.225,0.8125 0.1375,0.3625 0.2375,0.725 0.1,0.35 0.1125,0.7375 0.025,0.375 -0.125,0.8625 -0.2125,0.2875 -0.425,0.6125 -0.2125,0.3125 -0.4625,0.6 -0.2375,0.275 -0.525,0.4875 -0.2875,0.2 -0.65,0.2375 -0.525,0.0875 -1.1,0.05 -0.575,-0.025 -1.1125,-0.225 -0.525,-0.1875 -0.95,-0.5625 -0.425,-0.3875 -0.625,-0.9875 -0.0375,-0.275 -0.025,-0.625 0.0125,-0.35 0.025,-0.7125 0.025,-0.375 0.025,-0.725 0.0125,-0.35 -0.025,-0.6375 0.0375,-0.4875 0.3125,-0.825 0.2875,-0.3375 0.675,-0.5625 0.4,-0.2375 0.8625,-0.3875 0.4625,-0.15 0.8625,-0.275 0.3625,-0.075 0.725,0.05 0.3625,0.1125 0.7,0.3375 0.3375,0.2125 0.65,0.5 0.325,0.275 0.6125,0.5125 z m -2.1625,-0.2 q -0.1625,0.1125 -0.4625,0.1125 -0.3,0 -0.6,0.0375 -0.2875,0.025 -0.4875,0.1625 -0.2,0.1375 -0.1625,0.5375 l -0.325,-0.1 q 0,0.325 -0.1,0.65 -0.1,0.325 -0.1,0.65 -0.0375,0.4375 0.0625,0.7375 0.1125,0.3 0.325,0.5375 0.2125,0.225 0.5,0.4375 0.2875,0.2 0.6125,0.4375 0.1625,0.0375 0.425,0.0375 0.2625,-0.0125 0.55,-0.1 0.3,-0.1 0.575,-0.2875 0.2875,-0.1875 0.475,-0.5125 0.325,-0.575 0.325,-1.2375 0,-0.675 -0.325,-1.25 -0.1875,0.0375 -0.3125,-0.0875 -0.1125,-0.125 -0.2375,-0.2875 -0.1125,-0.175 -0.2875,-0.325 -0.1625,-0.15 -0.45,-0.15 z"
         id="path4734"
         inkscape:connector-curvature="0" />
      <path
         d="m 448.55979,925.24423 0.325,0 q 0.1625,0.325 0.075,0.4375 -0.0875,0.1125 -0.2875,0.1375 -0.1875,0.0375 -0.4125,0.05 -0.225,0.0125 -0.35,0.1375 -0.1875,0.1125 -0.325,0.05 -0.1375,-0.05 -0.2625,-0.175 -0.125,-0.125 -0.25,-0.275 -0.125,-0.15 -0.275,-0.25 -0.15,-0.1 -0.35,-0.0875 -0.2,0 -0.4625,0.1875 -0.3375,0.1625 -0.6375,0.275 -0.2875,0.1125 -0.575,0.125 -0.275,0.025 -0.5625,-0.0625 -0.2875,-0.0875 -0.6125,-0.3375 -0.4125,-0.375 -0.55,-0.8375 -0.125,-0.4625 -0.1375,-0.9625 -0.0125,-0.5 0.025,-1 0.0375,-0.5125 -0.0125,-0.9625 -0.05,-0.4625 -0.275,-0.85 -0.225,-0.4 -0.7625,-0.675 l 0,-0.3125 q 0.1625,0 0.3375,-0.05 0.1875,-0.05 0.375,-0.0875 0.1875,-0.05 0.3875,-0.075 0.2,-0.025 0.4,0.0125 0.35,0.475 0.4375,0.95 0.1,0.475 0.0875,0.9375 -0.0125,0.4625 -0.0625,0.9125 -0.0375,0.45 0.025,0.8875 0.0625,0.4375 0.3,0.8625 0.25,0.4125 0.825,0.8125 0.0375,-0.075 0.0875,-0.1125 0.0625,-0.05 0.1,-0.0875 0.05,-0.0375 0.0625,-0.0875 0.0125,-0.05 -0.0375,-0.125 l -0.1125,-0.1 q 0.1625,0.075 0.275,-0.05 0.125,-0.1375 0.25,-0.3 0.125,-0.1625 0.275,-0.275 0.1625,-0.125 0.4,-0.05 l 0,-0.5375 q 0.075,0.05 0.1375,0.0375 0.0625,-0.0125 0.125,-0.05 0.0625,-0.0375 0.125,-0.0875 0.0625,-0.0625 0.15,-0.1 -0.1875,-0.1 -0.225,-0.25 -0.025,-0.1625 0.0125,-0.3375 0.0375,-0.175 0.1,-0.35 0.075,-0.175 0.075,-0.3125 0,-0.15 -0.1,-0.2375 -0.1,-0.1 -0.4,-0.125 l 0.5375,-0.225 -1.5,-1.0875 q 0.1625,-0.4 0.4375,-0.5125 0.2875,-0.1125 0.6125,-0.075 0.3375,0.025 0.675,0.1375 0.35,0.1 0.6375,0.1375 0.075,0.6375 0.1,1.275 0.0375,0.625 0.05,1.25 0.0125,0.6125 0.0125,1.225 0.0125,0.6 0.05,1.2125 l 0.65,0.425 z"
         id="path4736"
         inkscape:connector-curvature="0" />
      <path
         d="m 451.59241,916.78173 q 0.075,0.3625 0.15,0.7625 0.075,0.3875 0.225,0.7125 0.15,0.325 0.4125,0.525 0.2625,0.2 0.7125,0.1625 0.325,-0.175 0.6875,-0.125 0.375,0.0375 0.6125,0.4375 0,0.125 -0.075,0.225 -0.0625,0.1 -0.175,0.1875 -0.1,0.0875 -0.2125,0.175 -0.1,0.075 -0.175,0.1625 -0.1375,-0.1625 -0.3625,-0.2125 -0.225,-0.05 -0.4875,-0.025 -0.2625,0.0125 -0.5375,0.0875 -0.2625,0.0625 -0.475,0.15 0,0.4875 -0.0875,0.9875 -0.0875,0.5 -0.1375,0.9875 -0.05,0.4875 0,0.95 0.05,0.45 0.3375,0.8625 0.2,0.1625 0.4,0.2125 0.2125,0.0375 0.4,0.0125 0.2,-0.0375 0.375,-0.125 0.175,-0.1 0.3375,-0.2125 0.25,-0.2375 0.325,-0.5 0.0875,-0.275 0.175,-0.5125 0.0875,-0.25 0.2375,-0.4375 0.1625,-0.2 0.5625,-0.275 0.1625,0.3625 0.2,0.625 0.0375,0.2625 0.025,0.5125 0,0.2375 -0.025,0.5 -0.025,0.2625 0.025,0.625 -0.2,0.2 -0.5375,0.45 -0.325,0.2375 -0.7125,0.425 -0.375,0.1875 -0.7875,0.2875 -0.4125,0.1 -0.7625,0.025 -0.325,-0.1625 -0.6375,-0.3875 -0.3125,-0.225 -0.55,-0.5 -0.225,-0.2875 -0.35,-0.625 -0.125,-0.35 -0.075,-0.75 -0.0625,-0.275 -0.0375,-0.6 0.025,-0.3375 0.0625,-0.675 0.05,-0.35 0.0625,-0.6875 0.025,-0.3375 -0.0375,-0.6125 -0.0625,-0.2875 -0.25,-0.4875 -0.1875,-0.2125 -0.5625,-0.3 -0.1625,0.0875 -0.3125,0.1125 -0.15,0.025 -0.225,0.1125 l -0.1,-0.975 q 0.475,0.1875 0.75,0.1125 0.2875,-0.0875 0.45,-0.3125 0.1625,-0.2375 0.25,-0.5625 0.0875,-0.325 0.1875,-0.6375 0.1125,-0.3125 0.2625,-0.55 0.1625,-0.25 0.4625,-0.3 z"
         id="path4738"
         inkscape:connector-curvature="0" />
      <path
         d="m 459.19373,915.89716 0,11.14502 -2.5879,0 0,-0.87281 1.45875,0 0,-9.39941 -1.45875,0 0,-0.8728 2.5879,0 z"
         id="path4740"
         inkscape:connector-curvature="0" />
    </g>
    <g
       style="font-style:normal;font-variant:normal;font-weight:normal;font-stretch:normal;font-size:12.5px;line-height:125%;font-family:'My Underwood';-inkscape-font-specification:'My Underwood';letter-spacing:0px;word-spacing:0px;fill:#000000;fill-opacity:1;stroke:none;stroke-width:1px;stroke-linecap:butt;stroke-linejoin:miter;stroke-opacity:1"
       id="text4651">
      <path
         d="m 412.67161,873.93485 q 0.3,-0.35 0.7,-0.55 0.4125,-0.2 0.85,-0.25 0.45,-0.0625 0.9,0.025 0.45,0.0875 0.8375,0.3 0.4,0.2125 0.7,0.5625 0.3,0.3375 0.4375,0.8 0.0375,0.2375 0,0.4875 -0.0375,0.25 -0.1625,0.4625 -0.125,0.2 -0.3375,0.3375 -0.2,0.125 -0.475,0.125 -0.375,-0.025 -0.55,-0.225 -0.1625,-0.2125 -0.225,-0.4875 -0.0625,-0.275 -0.1,-0.5625 -0.025,-0.3 -0.125,-0.525 -0.1,-0.225 -0.3375,-0.3125 -0.2375,-0.1 -0.725,0.0375 -0.3625,0.2125 -0.6625,0.55 -0.3,0.3375 -0.5,0.7625 -0.1875,0.425 -0.2375,0.9125 -0.0375,0.4875 0.125,1.0125 0.325,0.575 0.7875,0.85 0.475,0.275 1.0375,0.4375 0.325,0 0.625,-0.1625 0.3,-0.1625 0.5625,-0.4125 0.2625,-0.25 0.475,-0.55 0.225,-0.3 0.3875,-0.5875 0.325,0.075 0.4125,0.3125 0.0875,0.225 0.0625,0.5 -0.0125,0.275 -0.0875,0.5375 -0.0625,0.25 -0.0625,0.3625 -0.25,0.2875 -0.5625,0.525 -0.3125,0.2375 -0.675,0.3875 -0.3625,0.15 -0.7625,0.2 -0.4,0.0625 -0.8,-0.025 -0.525,-0.0375 -0.8375,-0.2875 -0.3125,-0.25 -0.5375,-0.5875 -0.225,-0.35 -0.425,-0.725 -0.1875,-0.375 -0.4625,-0.6625 0,-0.4125 -0.0375,-0.9 -0.025,-0.5 0.0125,-1 0.0375,-0.5 0.2,-0.9375 0.175,-0.4375 0.575,-0.7375 z"
         id="path4743"
         inkscape:connector-curvature="0" />
      <path
         d="m 419.34407,871.19735 q 0.2125,0.125 0.4,0.1 0.1875,-0.025 0.3625,-0.0375 0.175,-0.025 0.3375,0.0375 0.1625,0.05 0.325,0.3375 0.0375,0.725 0,1.6125 -0.0375,0.875 -0.05,1.825 0,0.9375 0.0625,1.8875 0.0625,0.9375 0.3,1.7875 0.4125,0 0.8125,0 0.4,-0.0125 0.7625,0.025 0.3625,0.0375 0.675,0.1625 0.325,0.1125 0.5625,0.35 -0.075,0.2375 -0.3125,0.3625 -0.225,0.125 -0.55,0.1625 -0.3125,0.0375 -0.6875,0.025 -0.3625,-0.0125 -0.7375,-0.0375 -0.3625,-0.0125 -0.7,-0.025 -0.325,0 -0.5625,0.05 -0.25,-0.0375 -0.5625,-0.0875 -0.3125,-0.0375 -0.6625,-0.0875 -0.35,-0.05 -0.7,-0.1125 -0.35,-0.0625 -0.6625,-0.15 0.025,-0.2625 0.2,-0.375 0.1875,-0.1125 0.4375,-0.15 0.25,-0.0375 0.525,-0.0375 0.275,0 0.475,-0.05 0.2125,-0.0625 0.3,-0.2 0.1,-0.15 0,-0.475 l 0.3125,-0.2125 q -0.075,-0.45 -0.075,-0.975 0.0125,-0.525 0.0375,-1.0625 0.0375,-0.55 0.05,-1.0875 0.025,-0.55 -0.05,-1.05 -0.0625,-0.5125 -0.25,-0.9625 -0.1875,-0.45 -0.5625,-0.8 -0.175,0.125 -0.3375,0.1375 -0.1625,0 -0.325,-0.05 -0.1625,-0.0625 -0.325,-0.175 -0.15,-0.1125 -0.3125,-0.225 0.0875,-0.125 0.25,-0.1875 0.175,-0.075 0.3875,-0.1125 0.2125,-0.0375 0.4375,-0.0625 0.225,-0.0375 0.4125,-0.075 z"
         id="path4745"
         inkscape:connector-curvature="0" />
      <path
         d="m 424.67102,871.30985 q 0.2875,-0.0375 0.5625,-0.025 0.2875,0 0.5,0.1 0.2125,0.1 0.3125,0.3125 0.1,0.2125 0.025,0.575 0.0375,0.45 -0.0125,0.825 -0.0375,0.375 -0.075,0.7375 -0.0375,0.3625 -0.0375,0.7375 0,0.375 0.125,0.825 0.3625,0.125 0.65,0.0375 0.2875,-0.1 0.525,-0.3 0.25,-0.2125 0.45,-0.4625 0.2125,-0.2625 0.4125,-0.4625 -0.2375,-0.125 -0.25,-0.275 0,-0.15 0.1125,-0.2875 0.1125,-0.15 0.2875,-0.2625 0.175,-0.1125 0.3,-0.15 0.2625,0.2125 0.55,0.25 0.2875,0.0375 0.575,0 0.3,-0.0375 0.5875,-0.0875 0.2875,-0.05 0.5375,-0.0125 0.2625,0.0375 0.4875,0.225 0.225,0.175 0.3875,0.6 -1.4,0 -2.35,0.475 -0.9375,0.475 -1.4375,1.375 0.2875,0.2 0.45,0.4375 0.175,0.2375 0.2875,0.475 0.125,0.2375 0.2375,0.475 0.125,0.2375 0.325,0.4375 l 0.1,-0.1125 q 0.125,0.2875 0.425,0.475 0.3125,0.175 0.65,0.375 0.35,0.1875 0.65,0.4375 0.3125,0.25 0.4375,0.65 -0.4,0 -0.875,0.0125 -0.4625,0.0125 -0.925,-0.0125 -0.4625,-0.0125 -0.9,-0.0875 -0.425,-0.075 -0.7625,-0.2375 -0.0375,-0.1125 0.025,-0.2125 0.0625,-0.1125 0.1625,-0.2 0.1125,-0.0875 0.2125,-0.175 0.1125,-0.0875 0.1625,-0.1625 0.0375,-0.325 -0.125,-0.5625 -0.1625,-0.2375 -0.4,-0.4625 -0.2375,-0.225 -0.4625,-0.45 -0.225,-0.2375 -0.3125,-0.5625 l -0.1125,0.1 q -0.0375,0.1125 -0.0375,0.1 0.0125,-0.025 0.0125,-0.0875 0,-0.075 -0.0375,-0.15 -0.025,-0.075 -0.15,-0.075 -0.075,0.075 -0.2875,0.1875 -0.2125,0.1 -0.4,0.25 -0.175,0.15 -0.2625,0.3625 -0.0875,0.2 0.0875,0.4875 -0.0375,0.2875 0.025,0.45 0.0625,0.15 0.1875,0.275 0.125,0.125 0.275,0.25 0.15,0.125 0.275,0.325 l 0.1,-0.1125 q 0.125,-0.125 0.225,-0.0625 0.1125,0.05 0.175,0.2 0.0625,0.1375 0.05,0.3125 -0.0125,0.175 -0.125,0.3 -0.45,-0.1625 -0.9125,-0.15 -0.4625,0 -0.875,0.0125 -0.4,0 -0.7,-0.05 -0.3,-0.0625 -0.425,-0.35 0.5875,-0.0875 0.85,-0.35 0.275,-0.275 0.3375,-0.6625 0.075,-0.3875 0.0125,-0.85 -0.0625,-0.475 -0.125,-0.9625 -0.0625,-0.4875 -0.075,-0.95 0,-0.475 0.1875,-0.85 0.0375,-0.45 -0.0125,-0.9 -0.0375,-0.4625 -0.15,-0.8875 -0.1125,-0.425 -0.2875,-0.7875 -0.175,-0.375 -0.4125,-0.6625 z"
         id="path4747"
         inkscape:connector-curvature="0" />
      <path
         d="m 440.25012,871.58485 q 0.125,-0.0375 0.35,-0.1 0.2375,-0.0625 0.4625,-0.05 0.225,0.0125 0.375,0.1375 0.1625,0.125 0.125,0.45 0.0375,0.1125 0,0.25 -0.0375,0.125 -0.125,0.25 -0.0875,0.125 -0.2,0.225 -0.1125,0.1 -0.2375,0.1375 -0.2125,-0.0875 -0.425,-0.2125 -0.2125,-0.125 -0.3625,-0.2875 -0.1375,-0.1625 -0.15,-0.3625 -0.0125,-0.2 0.1875,-0.4375 z m -0.7625,1.725 q 0.1375,0.1125 0.3375,0.125 0.2,0 0.4125,-0.025 0.225,-0.025 0.45,-0.05 0.225,-0.025 0.4,0.025 0.1875,0.05 0.3125,0.2 0.125,0.15 0.1625,0.4625 -0.05,0.6 -0.0375,1.15 0.0125,0.5375 0.075,1.075 0.0625,0.525 0.15,1.0625 0.1,0.5375 0.225,1.1375 0.1625,0.1625 0.45,0.1875 0.3,0.025 0.575,0.0625 0.2875,0.0375 0.4875,0.1875 0.2125,0.1375 0.2125,0.5375 -0.65,0.0875 -1.2875,0.1875 -0.625,0.1 -1.2625,0.15 -0.6375,0.05 -1.2875,0.0125 -0.65,-0.0375 -1.3375,-0.2375 -0.125,-0.125 -0.1375,-0.2625 0,-0.1375 0.05,-0.2625 0.0625,-0.1375 0.175,-0.25 0.1125,-0.125 0.2375,-0.2 0.4,0.325 0.8,0.2125 0.4125,-0.125 0.8,-0.525 0.175,-0.975 0.1625,-1.875 0,-0.9125 -0.25,-1.8 l -1.8375,-0.325 q -0.125,-0.3625 -0.05,-0.5 0.075,-0.1375 0.25,-0.1875 0.175,-0.05 0.3875,-0.075 0.2125,-0.0375 0.375,-0.2 z"
         id="path4749"
         inkscape:connector-curvature="0" />
      <path
         d="m 445.19465,873.34735 q 0.375,0.275 0.875,0.3 0.5125,0.025 1.05,-0.025 0.5375,-0.0625 1.0625,-0.125 0.525,-0.0625 0.9625,0.0375 0.4375,0.1 0.7375,0.45 0.3,0.35 0.3875,1.1 0.0875,0.4875 0.0875,1.025 0,0.525 0.0625,1.0375 0.075,0.5125 0.3,0.9875 0.225,0.4625 0.75,0.825 -0.0875,0.325 -0.275,0.475 -0.1875,0.15 -0.45,0.2 -0.25,0.05 -0.5625,0.0125 -0.3125,-0.025 -0.6375,-0.0625 -0.3125,-0.0375 -0.625,-0.0375 -0.3125,-0.0125 -0.5875,0.0625 -0.1625,-0.35 -0.1,-0.5625 0.0625,-0.225 0.2375,-0.3625 0.175,-0.15 0.4,-0.2625 0.2375,-0.1125 0.4125,-0.25 0.175,-0.15 0.2375,-0.3625 0.0625,-0.2125 -0.1,-0.5625 -0.0375,-0.375 -0.025,-0.8 0.0125,-0.4375 -0.025,-0.8625 -0.025,-0.425 -0.1625,-0.8125 -0.125,-0.3875 -0.4375,-0.675 -0.4125,-0.075 -0.7875,0.025 -0.375,0.1 -0.7125,0.3125 -0.3375,0.2125 -0.6125,0.5 -0.275,0.2875 -0.475,0.5625 0.075,0.325 0.05,0.6875 -0.0125,0.3625 -0.0375,0.725 -0.025,0.35 -0.025,0.7 0,0.3375 0.1125,0.6375 0.125,0.2875 0.4,0.5 0.275,0.2125 0.8,0.325 l 0.2,0 q 0.05,0.2125 -0.0875,0.325 -0.125,0.1125 -0.375,0.1625 -0.25,0.0375 -0.575,0.0375 -0.325,0 -0.675,0 -0.3375,-0.0125 -0.6625,0.0125 -0.3125,0.025 -0.525,0.1 -0.25,-0.075 -0.375,-0.225 -0.1125,-0.15 -0.2625,-0.3125 0.2,-0.2375 0.4625,-0.4125 0.2625,-0.1875 0.5,-0.375 0.25,-0.2 0.425,-0.4375 0.175,-0.2375 0.2125,-0.6 -0.2125,-0.3625 -0.25,-0.875 -0.025,-0.525 -0.025,-1.075 0,-0.5625 -0.0375,-1.1 -0.0375,-0.5375 -0.2375,-0.95 z"
         id="path4751"
         inkscape:connector-curvature="0" />
    </g>
    <g
       style="font-style:normal;font-variant:normal;font-weight:normal;font-stretch:normal;font-size:12.5px;line-height:125%;font-family:'My Underwood';-inkscape-font-specification:'My Underwood';letter-spacing:0px;word-spacing:0px;fill:#000000;fill-opacity:1;stroke:none;stroke-width:1px;stroke-linecap:butt;stroke-linejoin:miter;stroke-opacity:1"
       id="text4655">
      <path
         d="m 416.15434,828.93606 q 0,-0.35 0.1625,-0.55 0.175,-0.2125 0.4375,-0.2875 0.275,-0.0875 0.6,-0.0625 0.3375,0.025 0.6625,0.1375 0.325,0.1 0.6,0.275 0.275,0.175 0.4375,0.3875 0.975,-0.725 1.825,-0.675 0.85,0.05 1.7375,0.775 0.1625,0.2125 0.175,0.425 0.025,0.2 0,0.425 -0.0125,0.225 -0.025,0.475 -0.0125,0.2375 0.075,0.5125 -0.25,0.05 -0.4875,0.1 -0.2375,0.0375 -0.4625,0.0375 -0.225,-0.0125 -0.425,-0.1125 -0.1875,-0.1 -0.35,-0.35 l -0.4375,-0.85 q -0.575,0.075 -1.0625,0.45 -0.4875,0.375 -0.6625,0.95 0.0375,0.25 0,0.575 -0.0375,0.325 -0.05,0.6875 -0.0125,0.3625 0.0625,0.7375 0.075,0.3625 0.325,0.6875 0.1625,0 0.4125,0.0125 0.2625,0.0125 0.5125,0.075 0.25,0.05 0.4375,0.1875 0.2,0.1375 0.2375,0.375 -0.1125,0.2875 -0.35,0.3375 -0.225,0.0625 -0.4875,0.05 -0.2625,-0.0125 -0.5375,-0.0125 -0.2625,0 -0.4625,0.1625 -0.325,-0.125 -0.7,-0.1375 -0.375,0 -0.775,0 -0.3875,0 -0.7875,-0.05 -0.3875,-0.0375 -0.7375,-0.25 -0.125,-0.1125 -0.075,-0.25 0.0625,-0.1375 0.1875,-0.25 0.1375,-0.125 0.2875,-0.225 0.1625,-0.1 0.2375,-0.1375 0.2,0.1625 0.2875,0.125 0.0875,-0.05 0.15,-0.15 0.075,-0.1 0.175,-0.175 0.1125,-0.0875 0.3625,-0.0125 0.1625,-0.4875 0.2125,-0.975 0.05,-0.4875 0.0375,-0.9625 -0.0125,-0.4875 -0.0625,-0.9625 -0.0375,-0.4875 -0.075,-0.9625 -0.1125,-0.1125 -0.275,-0.125 -0.15,-0.025 -0.325,0 -0.1625,0.0125 -0.3375,0.0375 -0.175,0.025 -0.325,0 -0.1375,-0.025 -0.2375,-0.125 -0.1,-0.1 -0.125,-0.35 z"
         id="path4754"
         inkscape:connector-curvature="0" />
      <path
         d="m 429.47094,830.39856 q 0.1875,0.425 0.1375,0.675 -0.0375,0.2375 -0.2375,0.35 -0.2,0.1125 -0.5125,0.1375 -0.3,0.0125 -0.625,0.0125 -0.325,-0.0125 -0.625,-0.0125 -0.3,-0.0125 -0.4875,0.0375 -0.325,0.0375 -0.675,-0.025 -0.35,-0.075 -0.7125,-0.1125 -0.35,-0.0375 -0.7125,0.0125 -0.3625,0.05 -0.725,0.325 0.075,0.4125 0.3,0.675 0.225,0.2625 0.525,0.45 0.3,0.1875 0.625,0.35 0.3375,0.1625 0.625,0.3625 0.2,-0.2 0.4125,-0.1875 0.225,0.0125 0.4125,0.0375 0.1875,0.0125 0.3125,-0.05 0.125,-0.075 0.125,-0.4375 0.2875,0.075 0.425,-0.05 0.15,-0.1375 0.275,-0.3 0.1375,-0.1625 0.325,-0.2625 0.2,-0.1 0.6,0.0625 l -0.55,1.7375 q -0.15,0 -0.3625,0.025 -0.2,0.025 -0.425,0.1 -0.2125,0.0625 -0.425,0.1875 -0.2125,0.125 -0.375,0.325 -0.375,-0.0375 -0.7875,-0.15 -0.4125,-0.1 -0.8125,-0.275 -0.4,-0.1875 -0.775,-0.45 -0.3625,-0.2625 -0.65,-0.625 -0.4,-0.9125 -0.525,-1.8 -0.125,-0.9 0.2,-1.875 0.4875,-0.575 1.0125,-0.9125 0.525,-0.3375 1.2375,-0.5875 0.6875,-0.125 1.2,0.1125 0.525,0.225 0.925,0.6125 0.4125,0.375 0.725,0.8125 0.3125,0.4375 0.6,0.7125 z m -3.35,-1.4125 q -1.0875,0.1625 -1.6125,1.3 0.375,0.125 0.8125,0.1375 0.4375,0.0125 0.9,0 0.4625,-0.025 0.9375,-0.0375 0.475,-0.025 0.925,0.0125 0,-0.3625 -0.2125,-0.6375 -0.2125,-0.2875 -0.525,-0.4625 -0.3,-0.1875 -0.6375,-0.2625 -0.3375,-0.0875 -0.5875,-0.05 z"
         id="path4756"
         inkscape:connector-curvature="0" />
      <path
         d="m 435.49731,828.19856 q 0.0375,0.3625 0.0875,0.7375 0.05,0.3625 0.075,0.725 0.0375,0.35 0.025,0.675 0,0.3125 -0.075,0.5625 -0.0875,-0.1 -0.2875,-0.225 -0.2,-0.125 -0.375,-0.125 0.3125,0.2125 0.55,0.575 0.2375,0.3625 0.35,0.8 0.1125,0.4375 0.0875,0.9 -0.025,0.4625 -0.2375,0.8625 -0.2,0.1625 -0.4125,0.25 -0.2125,0.075 -0.4,0.1625 -0.1875,0.075 -0.35,0.2 -0.15,0.125 -0.225,0.3625 -0.4875,-0.0875 -1.0125,-0.225 -0.5125,-0.1375 -1.025,-0.2375 -0.5,-0.1 -0.975,-0.1125 -0.475,-0.025 -0.875,0.1375 -0.1625,-0.1375 -0.175,-0.2625 -0.0125,-0.125 0.0375,-0.2375 0.0625,-0.125 0.1375,-0.225 0.075,-0.1125 0.0875,-0.2125 0.025,-0.1 -0.0625,-0.1875 -0.075,-0.0875 -0.35,-0.1625 l 0.225,0 0.1,-0.875 q 0.2625,-0.075 0.4625,0.025 0.2,0.0875 0.3625,0.275 0.1625,0.1875 0.3,0.4125 0.1375,0.225 0.3,0.4125 0.1625,0.175 0.3625,0.275 0.2,0.1 0.4625,0.0125 0.2875,0.125 0.5125,0.1 0.225,-0.025 0.425,-0.1 0.2125,-0.0875 0.425,-0.1875 0.2125,-0.1 0.4875,-0.1375 -0.05,-0.125 0,-0.225 0.05,-0.1 0.1375,-0.175 0.1,-0.0875 0.2,-0.15 0.1125,-0.0625 0.1875,-0.1 -0.15,-0.3625 -0.4,-0.5375 -0.25,-0.1875 -0.55,-0.275 -0.2875,-0.0875 -0.6,-0.125 -0.3125,-0.05 -0.5875,-0.1375 -0.2,0.125 -0.45,0.075 -0.2375,-0.0625 -0.4875,-0.175 -0.25,-0.125 -0.5125,-0.25 -0.2625,-0.1375 -0.5,-0.175 -0.325,-0.25 -0.4,-0.55 -0.0625,-0.3 0,-0.6125 0.0625,-0.3125 0.1875,-0.625 0.1375,-0.3125 0.2125,-0.6 0.35,-0.2625 0.7,-0.3625 0.35,-0.1125 0.7,-0.125 0.35,-0.0125 0.7125,0.05 0.3625,0.05 0.75,0.1125 0.3875,0.05 0.8,0.075 0.4125,0.0125 0.875,-0.0625 z m -2.5,0.8375 q -0.2,0.0375 -0.45,0.1125 -0.2375,0.075 -0.45,0.2 -0.2125,0.125 -0.3625,0.325 -0.1375,0.1875 -0.1375,0.4625 0.25,0.0375 0.6625,0.1625 0.4125,0.1125 0.825,0.2 0.425,0.0875 0.7875,0.1125 0.375,0.0125 0.525,-0.1625 0.075,-0.3 0.025,-0.475 -0.0375,-0.1875 -0.175,-0.2875 -0.125,-0.1125 -0.3125,-0.175 -0.175,-0.0625 -0.3625,-0.1125 -0.175,-0.0625 -0.3375,-0.1375 -0.15,-0.0875 -0.2375,-0.225 z"
         id="path4758"
         inkscape:connector-curvature="0" />
      <path
         d="m 442.45922,830.39856 q 0.1875,0.425 0.1375,0.675 -0.0375,0.2375 -0.2375,0.35 -0.2,0.1125 -0.5125,0.1375 -0.3,0.0125 -0.625,0.0125 -0.325,-0.0125 -0.625,-0.0125 -0.3,-0.0125 -0.4875,0.0375 -0.325,0.0375 -0.675,-0.025 -0.35,-0.075 -0.7125,-0.1125 -0.35,-0.0375 -0.7125,0.0125 -0.3625,0.05 -0.725,0.325 0.075,0.4125 0.3,0.675 0.225,0.2625 0.525,0.45 0.3,0.1875 0.625,0.35 0.3375,0.1625 0.625,0.3625 0.2,-0.2 0.4125,-0.1875 0.225,0.0125 0.4125,0.0375 0.1875,0.0125 0.3125,-0.05 0.125,-0.075 0.125,-0.4375 0.2875,0.075 0.425,-0.05 0.15,-0.1375 0.275,-0.3 0.1375,-0.1625 0.325,-0.2625 0.2,-0.1 0.6,0.0625 l -0.55,1.7375 q -0.15,0 -0.3625,0.025 -0.2,0.025 -0.425,0.1 -0.2125,0.0625 -0.425,0.1875 -0.2125,0.125 -0.375,0.325 -0.375,-0.0375 -0.7875,-0.15 -0.4125,-0.1 -0.8125,-0.275 -0.4,-0.1875 -0.775,-0.45 -0.3625,-0.2625 -0.65,-0.625 -0.4,-0.9125 -0.525,-1.8 -0.125,-0.9 0.2,-1.875 0.4875,-0.575 1.0125,-0.9125 0.525,-0.3375 1.2375,-0.5875 0.6875,-0.125 1.2,0.1125 0.525,0.225 0.925,0.6125 0.4125,0.375 0.725,0.8125 0.3125,0.4375 0.6,0.7125 z m -3.35,-1.4125 q -1.0875,0.1625 -1.6125,1.3 0.375,0.125 0.8125,0.1375 0.4375,0.0125 0.9,0 0.4625,-0.025 0.9375,-0.0375 0.475,-0.025 0.925,0.0125 0,-0.3625 -0.2125,-0.6375 -0.2125,-0.2875 -0.525,-0.4625 -0.3,-0.1875 -0.6375,-0.2625 -0.3375,-0.0875 -0.5875,-0.05 z"
         id="path4760"
         inkscape:connector-curvature="0" />
      <path
         d="m 445.44809,826.03606 q 0.075,0.3625 0.15,0.7625 0.075,0.3875 0.225,0.7125 0.15,0.325 0.4125,0.525 0.2625,0.2 0.7125,0.1625 0.325,-0.175 0.6875,-0.125 0.375,0.0375 0.6125,0.4375 0,0.125 -0.075,0.225 -0.0625,0.1 -0.175,0.1875 -0.1,0.0875 -0.2125,0.175 -0.1,0.075 -0.175,0.1625 -0.1375,-0.1625 -0.3625,-0.2125 -0.225,-0.05 -0.4875,-0.025 -0.2625,0.0125 -0.5375,0.0875 -0.2625,0.0625 -0.475,0.15 0,0.4875 -0.0875,0.9875 -0.0875,0.5 -0.1375,0.9875 -0.05,0.4875 0,0.95 0.05,0.45 0.3375,0.8625 0.2,0.1625 0.4,0.2125 0.2125,0.0375 0.4,0.0125 0.2,-0.0375 0.375,-0.125 0.175,-0.1 0.3375,-0.2125 0.25,-0.2375 0.325,-0.5 0.0875,-0.275 0.175,-0.5125 0.0875,-0.25 0.2375,-0.4375 0.1625,-0.2 0.5625,-0.275 0.1625,0.3625 0.2,0.625 0.0375,0.2625 0.025,0.5125 0,0.2375 -0.025,0.5 -0.025,0.2625 0.025,0.625 -0.2,0.2 -0.5375,0.45 -0.325,0.2375 -0.7125,0.425 -0.375,0.1875 -0.7875,0.2875 -0.4125,0.1 -0.7625,0.025 -0.325,-0.1625 -0.6375,-0.3875 -0.3125,-0.225 -0.55,-0.5 -0.225,-0.2875 -0.35,-0.625 -0.125,-0.35 -0.075,-0.75 -0.0625,-0.275 -0.0375,-0.6 0.025,-0.3375 0.0625,-0.675 0.05,-0.35 0.0625,-0.6875 0.025,-0.3375 -0.0375,-0.6125 -0.0625,-0.2875 -0.25,-0.4875 -0.1875,-0.2125 -0.5625,-0.3 -0.1625,0.0875 -0.3125,0.1125 -0.15,0.025 -0.225,0.1125 l -0.1,-0.975 q 0.475,0.1875 0.75,0.1125 0.2875,-0.0875 0.45,-0.3125 0.1625,-0.2375 0.25,-0.5625 0.0875,-0.325 0.1875,-0.6375 0.1125,-0.3125 0.2625,-0.55 0.1625,-0.25 0.4625,-0.3 z"
         id="path4762"
         inkscape:connector-curvature="0" />
    </g>
    <g
       style="font-style:normal;font-variant:normal;font-weight:normal;font-stretch:normal;font-size:12.5px;line-height:125%;font-family:'My Underwood';-inkscape-font-specification:'My Underwood';letter-spacing:0px;word-spacing:0px;fill:#000000;fill-opacity:1;stroke:none;stroke-width:1px;stroke-linecap:butt;stroke-linejoin:miter;stroke-opacity:1"
       id="text4659">
      <path
         d="m 428.02175,738.94714 q 0.3625,0.65 0.7125,1.275 0.35,0.625 0.55,1.2375 0.2,0.6 0.1875,1.1875 -0.0125,0.5875 -0.3875,1.15 0.125,0.25 0.05,0.5375 -0.0625,0.2875 -0.2125,0.5875 -0.15,0.3 -0.325,0.6 -0.175,0.2875 -0.2625,0.5375 -0.3625,0.4 -0.8125,0.6125 -0.45,0.2125 -0.9375,0.2625 -0.4875,0.05 -0.975,-0.05 -0.4875,-0.0875 -0.9375,-0.2875 -0.4875,-0.325 -0.85,-0.775 -0.35,-0.4625 -0.5625,-1 -0.2125,-0.55 -0.275,-1.1625 -0.05,-0.625 0.0625,-1.275 -0.0375,-0.5625 0.1,-1.1625 0.1375,-0.6125 0.425,-1.1625 0.3,-0.55 0.7375,-1.0125 0.45,-0.4625 1.0125,-0.7375 0.3625,0.075 0.725,0.1125 0.3625,0.025 0.7,0.075 0.35,0.05 0.6625,0.15 0.325,0.1 0.6125,0.3 z m -1.725,0.525 q -0.325,0.0875 -0.425,0.175 -0.1,0.075 -0.1625,0.1625 -0.0625,0.075 -0.175,0.15 -0.1125,0.075 -0.4375,0.15 -0.2,0.5 -0.425,1.025 -0.225,0.525 -0.3625,1.0625 -0.125,0.5375 -0.1,1.075 0.0375,0.5375 0.3625,1.0625 0.325,-0.025 0.525,0.075 0.2125,0.1 0.3625,0.2625 0.15,0.1625 0.25,0.3625 0.1125,0.2 0.225,0.3625 0.125,0.1625 0.275,0.2625 0.1625,0.1 0.4,0.075 0.4375,-0.525 0.7625,-1.1125 0.3375,-0.5875 0.5,-1.225 0.1625,-0.6375 0.125,-1.3125 -0.025,-0.6875 -0.3,-1.4125 -0.075,-0.325 -0.275,-0.45 -0.2,-0.125 -0.425,-0.1875 -0.225,-0.075 -0.425,-0.175 -0.2,-0.1 -0.275,-0.3875 z"
         id="path4777"
         inkscape:connector-curvature="0" />
    </g>
    <g
       style="font-style:normal;font-variant:normal;font-weight:normal;font-stretch:normal;font-size:12.5px;line-height:125%;font-family:'My Underwood';-inkscape-font-specification:'My Underwood';letter-spacing:0px;word-spacing:0px;fill:#000000;fill-opacity:1;stroke:none;stroke-width:1px;stroke-linecap:butt;stroke-linejoin:miter;stroke-opacity:1"
       id="text4663">
      <path
         d="m 424.85925,755.39644 q 0.125,-0.0375 0.35,-0.1 0.2375,-0.0625 0.4625,-0.05 0.225,0.0125 0.375,0.1375 0.1625,0.125 0.125,0.45 0.0375,0.1125 0,0.25 -0.0375,0.125 -0.125,0.25 -0.0875,0.125 -0.2,0.225 -0.1125,0.1 -0.2375,0.1375 -0.2125,-0.0875 -0.425,-0.2125 -0.2125,-0.125 -0.3625,-0.2875 -0.1375,-0.1625 -0.15,-0.3625 -0.0125,-0.2 0.1875,-0.4375 z m -0.7625,1.725 q 0.1375,0.1125 0.3375,0.125 0.2,0 0.4125,-0.025 0.225,-0.025 0.45,-0.05 0.225,-0.025 0.4,0.025 0.1875,0.05 0.3125,0.2 0.125,0.15 0.1625,0.4625 -0.05,0.6 -0.0375,1.15 0.0125,0.5375 0.075,1.075 0.0625,0.525 0.15,1.0625 0.1,0.5375 0.225,1.1375 0.1625,0.1625 0.45,0.1875 0.3,0.025 0.575,0.0625 0.2875,0.0375 0.4875,0.1875 0.2125,0.1375 0.2125,0.5375 -0.65,0.0875 -1.2875,0.1875 -0.625,0.1 -1.2625,0.15 -0.6375,0.05 -1.2875,0.0125 -0.65,-0.0375 -1.3375,-0.2375 -0.125,-0.125 -0.1375,-0.2625 0,-0.1375 0.05,-0.2625 0.0625,-0.1375 0.175,-0.25 0.1125,-0.125 0.2375,-0.2 0.4,0.325 0.8,0.2125 0.4125,-0.125 0.8,-0.525 0.175,-0.975 0.1625,-1.875 0,-0.9125 -0.25,-1.8 l -1.8375,-0.325 q -0.125,-0.3625 -0.05,-0.5 0.075,-0.1375 0.25,-0.1875 0.175,-0.05 0.3875,-0.075 0.2125,-0.0375 0.375,-0.2 z"
         id="path4772"
         inkscape:connector-curvature="0" />
      <path
         d="m 429.80378,757.15894 q 0.375,0.275 0.875,0.3 0.5125,0.025 1.05,-0.025 0.5375,-0.0625 1.0625,-0.125 0.525,-0.0625 0.9625,0.0375 0.4375,0.1 0.7375,0.45 0.3,0.35 0.3875,1.1 0.0875,0.4875 0.0875,1.025 0,0.525 0.0625,1.0375 0.075,0.5125 0.3,0.9875 0.225,0.4625 0.75,0.825 -0.0875,0.325 -0.275,0.475 -0.1875,0.15 -0.45,0.2 -0.25,0.05 -0.5625,0.0125 -0.3125,-0.025 -0.6375,-0.0625 -0.3125,-0.0375 -0.625,-0.0375 -0.3125,-0.0125 -0.5875,0.0625 -0.1625,-0.35 -0.1,-0.5625 0.0625,-0.225 0.2375,-0.3625 0.175,-0.15 0.4,-0.2625 0.2375,-0.1125 0.4125,-0.25 0.175,-0.15 0.2375,-0.3625 0.0625,-0.2125 -0.1,-0.5625 -0.0375,-0.375 -0.025,-0.8 0.0125,-0.4375 -0.025,-0.8625 -0.025,-0.425 -0.1625,-0.8125 -0.125,-0.3875 -0.4375,-0.675 -0.4125,-0.075 -0.7875,0.025 -0.375,0.1 -0.7125,0.3125 -0.3375,0.2125 -0.6125,0.5 -0.275,0.2875 -0.475,0.5625 0.075,0.325 0.05,0.6875 -0.0125,0.3625 -0.0375,0.725 -0.025,0.35 -0.025,0.7 0,0.3375 0.1125,0.6375 0.125,0.2875 0.4,0.5 0.275,0.2125 0.8,0.325 l 0.2,0 q 0.05,0.2125 -0.0875,0.325 -0.125,0.1125 -0.375,0.1625 -0.25,0.0375 -0.575,0.0375 -0.325,0 -0.675,0 -0.3375,-0.0125 -0.6625,0.0125 -0.3125,0.025 -0.525,0.1 -0.25,-0.075 -0.375,-0.225 -0.1125,-0.15 -0.2625,-0.3125 0.2,-0.2375 0.4625,-0.4125 0.2625,-0.1875 0.5,-0.375 0.25,-0.2 0.425,-0.4375 0.175,-0.2375 0.2125,-0.6 -0.2125,-0.3625 -0.25,-0.875 -0.025,-0.525 -0.025,-1.075 0,-0.5625 -0.0375,-1.1 -0.0375,-0.5375 -0.2375,-0.95 z"
         id="path4774"
         inkscape:connector-curvature="0" />
    </g>
    <g
       style="font-style:normal;font-variant:normal;font-weight:normal;font-stretch:normal;font-size:12.5px;line-height:125%;font-family:'My Underwood';-inkscape-font-specification:'My Underwood';letter-spacing:0px;word-spacing:0px;fill:#000000;fill-opacity:1;stroke:none;stroke-width:1px;stroke-linecap:butt;stroke-linejoin:miter;stroke-opacity:1"
       id="text4667">
      <path
         d="m 427.85635,776.08616 q 0.0875,0.45 0.225,0.8125 0.1375,0.3625 0.2375,0.725 0.1,0.35 0.1125,0.7375 0.025,0.375 -0.125,0.8625 -0.2125,0.2875 -0.425,0.6125 -0.2125,0.3125 -0.4625,0.6 -0.2375,0.275 -0.525,0.4875 -0.2875,0.2 -0.65,0.2375 -0.525,0.0875 -1.1,0.05 -0.575,-0.025 -1.1125,-0.225 -0.525,-0.1875 -0.95,-0.5625 -0.425,-0.3875 -0.625,-0.9875 -0.0375,-0.275 -0.025,-0.625 0.0125,-0.35 0.025,-0.7125 0.025,-0.375 0.025,-0.725 0.0125,-0.35 -0.025,-0.6375 0.0375,-0.4875 0.3125,-0.825 0.2875,-0.3375 0.675,-0.5625 0.4,-0.2375 0.8625,-0.3875 0.4625,-0.15 0.8625,-0.275 0.3625,-0.075 0.725,0.05 0.3625,0.1125 0.7,0.3375 0.3375,0.2125 0.65,0.5 0.325,0.275 0.6125,0.5125 z m -2.1625,-0.2 q -0.1625,0.1125 -0.4625,0.1125 -0.3,0 -0.6,0.0375 -0.2875,0.025 -0.4875,0.1625 -0.2,0.1375 -0.1625,0.5375 l -0.325,-0.1 q 0,0.325 -0.1,0.65 -0.1,0.325 -0.1,0.65 -0.0375,0.4375 0.0625,0.7375 0.1125,0.3 0.325,0.5375 0.2125,0.225 0.5,0.4375 0.2875,0.2 0.6125,0.4375 0.1625,0.0375 0.425,0.0375 0.2625,-0.0125 0.55,-0.1 0.3,-0.1 0.575,-0.2875 0.2875,-0.1875 0.475,-0.5125 0.325,-0.575 0.325,-1.2375 0,-0.675 -0.325,-1.25 -0.1875,0.0375 -0.3125,-0.0875 -0.1125,-0.125 -0.2375,-0.2875 -0.1125,-0.175 -0.2875,-0.325 -0.1625,-0.15 -0.45,-0.15 z"
         id="path4765"
         inkscape:connector-curvature="0" />
      <path
         d="m 435.63624,780.78616 0.325,0 q 0.1625,0.325 0.075,0.4375 -0.0875,0.1125 -0.2875,0.1375 -0.1875,0.0375 -0.4125,0.05 -0.225,0.0125 -0.35,0.1375 -0.1875,0.1125 -0.325,0.05 -0.1375,-0.05 -0.2625,-0.175 -0.125,-0.125 -0.25,-0.275 -0.125,-0.15 -0.275,-0.25 -0.15,-0.1 -0.35,-0.0875 -0.2,0 -0.4625,0.1875 -0.3375,0.1625 -0.6375,0.275 -0.2875,0.1125 -0.575,0.125 -0.275,0.025 -0.5625,-0.0625 -0.2875,-0.0875 -0.6125,-0.3375 -0.4125,-0.375 -0.55,-0.8375 -0.125,-0.4625 -0.1375,-0.9625 -0.0125,-0.5 0.025,-1 0.0375,-0.5125 -0.0125,-0.9625 -0.05,-0.4625 -0.275,-0.85 -0.225,-0.4 -0.7625,-0.675 l 0,-0.3125 q 0.1625,0 0.3375,-0.05 0.1875,-0.05 0.375,-0.0875 0.1875,-0.05 0.3875,-0.075 0.2,-0.025 0.4,0.0125 0.35,0.475 0.4375,0.95 0.1,0.475 0.0875,0.9375 -0.0125,0.4625 -0.0625,0.9125 -0.0375,0.45 0.025,0.8875 0.0625,0.4375 0.3,0.8625 0.25,0.4125 0.825,0.8125 0.0375,-0.075 0.0875,-0.1125 0.0625,-0.05 0.1,-0.0875 0.05,-0.0375 0.0625,-0.0875 0.0125,-0.05 -0.0375,-0.125 l -0.1125,-0.1 q 0.1625,0.075 0.275,-0.05 0.125,-0.1375 0.25,-0.3 0.125,-0.1625 0.275,-0.275 0.1625,-0.125 0.4,-0.05 l 0,-0.5375 q 0.075,0.05 0.1375,0.0375 0.0625,-0.0125 0.125,-0.05 0.0625,-0.0375 0.125,-0.0875 0.0625,-0.0625 0.15,-0.1 -0.1875,-0.1 -0.225,-0.25 -0.025,-0.1625 0.0125,-0.3375 0.0375,-0.175 0.1,-0.35 0.075,-0.175 0.075,-0.3125 0,-0.15 -0.1,-0.2375 -0.1,-0.1 -0.4,-0.125 l 0.5375,-0.225 -1.5,-1.0875 q 0.1625,-0.4 0.4375,-0.5125 0.2875,-0.1125 0.6125,-0.075 0.3375,0.025 0.675,0.1375 0.35,0.1 0.6375,0.1375 0.075,0.6375 0.1,1.275 0.0375,0.625 0.05,1.25 0.0125,0.6125 0.0125,1.225 0.0125,0.6 0.05,1.2125 l 0.65,0.425 z"
         id="path4767"
         inkscape:connector-curvature="0" />
      <path
         d="m 438.66885,772.32366 q 0.075,0.3625 0.15,0.7625 0.075,0.3875 0.225,0.7125 0.15,0.325 0.4125,0.525 0.2625,0.2 0.7125,0.1625 0.325,-0.175 0.6875,-0.125 0.375,0.0375 0.6125,0.4375 0,0.125 -0.075,0.225 -0.0625,0.1 -0.175,0.1875 -0.1,0.0875 -0.2125,0.175 -0.1,0.075 -0.175,0.1625 -0.1375,-0.1625 -0.3625,-0.2125 -0.225,-0.05 -0.4875,-0.025 -0.2625,0.0125 -0.5375,0.0875 -0.2625,0.0625 -0.475,0.15 0,0.4875 -0.0875,0.9875 -0.0875,0.5 -0.1375,0.9875 -0.05,0.4875 0,0.95 0.05,0.45 0.3375,0.8625 0.2,0.1625 0.4,0.2125 0.2125,0.0375 0.4,0.0125 0.2,-0.0375 0.375,-0.125 0.175,-0.1 0.3375,-0.2125 0.25,-0.2375 0.325,-0.5 0.0875,-0.275 0.175,-0.5125 0.0875,-0.25 0.2375,-0.4375 0.1625,-0.2 0.5625,-0.275 0.1625,0.3625 0.2,0.625 0.0375,0.2625 0.025,0.5125 0,0.2375 -0.025,0.5 -0.025,0.2625 0.025,0.625 -0.2,0.2 -0.5375,0.45 -0.325,0.2375 -0.7125,0.425 -0.375,0.1875 -0.7875,0.2875 -0.4125,0.1 -0.7625,0.025 -0.325,-0.1625 -0.6375,-0.3875 -0.3125,-0.225 -0.55,-0.5 -0.225,-0.2875 -0.35,-0.625 -0.125,-0.35 -0.075,-0.75 -0.0625,-0.275 -0.0375,-0.6 0.025,-0.3375 0.0625,-0.675 0.05,-0.35 0.0625,-0.6875 0.025,-0.3375 -0.0375,-0.6125 -0.0625,-0.2875 -0.25,-0.4875 -0.1875,-0.2125 -0.5625,-0.3 -0.1625,0.0875 -0.3125,0.1125 -0.15,0.025 -0.225,0.1125 l -0.1,-0.975 q 0.475,0.1875 0.75,0.1125 0.2875,-0.0875 0.45,-0.3125 0.1625,-0.2375 0.25,-0.5625 0.0875,-0.325 0.1875,-0.6375 0.1125,-0.3125 0.2625,-0.55 0.1625,-0.25 0.4625,-0.3 z"
         id="path4769"
         inkscape:connector-curvature="0" />
    </g>
    <g
       style="font-style:normal;font-variant:normal;font-weight:normal;font-stretch:normal;font-size:12.5px;line-height:125%;font-family:'My Underwood';-inkscape-font-specification:'My Underwood';letter-spacing:0px;word-spacing:0px;fill:#000000;fill-opacity:1;stroke:none;stroke-width:1px;stroke-linecap:butt;stroke-linejoin:miter;stroke-opacity:1"
       id="text4671">
      <path
         d="m 428.20925,707.2043 q 0.0375,0.3625 0.0875,0.7375 0.05,0.3625 0.075,0.725 0.0375,0.35 0.025,0.675 0,0.3125 -0.075,0.5625 -0.0875,-0.1 -0.2875,-0.225 -0.2,-0.125 -0.375,-0.125 0.3125,0.2125 0.55,0.575 0.2375,0.3625 0.35,0.8 0.1125,0.4375 0.0875,0.9 -0.025,0.4625 -0.2375,0.8625 -0.2,0.1625 -0.4125,0.25 -0.2125,0.075 -0.4,0.1625 -0.1875,0.075 -0.35,0.2 -0.15,0.125 -0.225,0.3625 -0.4875,-0.0875 -1.0125,-0.225 -0.5125,-0.1375 -1.025,-0.2375 -0.5,-0.1 -0.975,-0.1125 -0.475,-0.025 -0.875,0.1375 -0.1625,-0.1375 -0.175,-0.2625 -0.0125,-0.125 0.0375,-0.2375 0.0625,-0.125 0.1375,-0.225 0.075,-0.1125 0.0875,-0.2125 0.025,-0.1 -0.0625,-0.1875 -0.075,-0.0875 -0.35,-0.1625 l 0.225,0 0.1,-0.875 q 0.2625,-0.075 0.4625,0.025 0.2,0.0875 0.3625,0.275 0.1625,0.1875 0.3,0.4125 0.1375,0.225 0.3,0.4125 0.1625,0.175 0.3625,0.275 0.2,0.1 0.4625,0.0125 0.2875,0.125 0.5125,0.1 0.225,-0.025 0.425,-0.1 0.2125,-0.0875 0.425,-0.1875 0.2125,-0.1 0.4875,-0.1375 -0.05,-0.125 0,-0.225 0.05,-0.1 0.1375,-0.175 0.1,-0.0875 0.2,-0.15 0.1125,-0.0625 0.1875,-0.1 -0.15,-0.3625 -0.4,-0.5375 -0.25,-0.1875 -0.55,-0.275 -0.2875,-0.0875 -0.6,-0.125 -0.3125,-0.05 -0.5875,-0.1375 -0.2,0.125 -0.45,0.075 -0.2375,-0.0625 -0.4875,-0.175 -0.25,-0.125 -0.5125,-0.25 -0.2625,-0.1375 -0.5,-0.175 -0.325,-0.25 -0.4,-0.55 -0.0625,-0.3 0,-0.6125 0.0625,-0.3125 0.1875,-0.625 0.1375,-0.3125 0.2125,-0.6 0.35,-0.2625 0.7,-0.3625 0.35,-0.1125 0.7,-0.125 0.35,-0.0125 0.7125,0.05 0.3625,0.05 0.75,0.1125 0.3875,0.05 0.8,0.075 0.4125,0.0125 0.875,-0.0625 z m -2.5,0.8375 q -0.2,0.0375 -0.45,0.1125 -0.2375,0.075 -0.45,0.2 -0.2125,0.125 -0.3625,0.325 -0.1375,0.1875 -0.1375,0.4625 0.25,0.0375 0.6625,0.1625 0.4125,0.1125 0.825,0.2 0.425,0.0875 0.7875,0.1125 0.375,0.0125 0.525,-0.1625 0.075,-0.3 0.025,-0.475 -0.0375,-0.1875 -0.175,-0.2875 -0.125,-0.1125 -0.3125,-0.175 -0.175,-0.0625 -0.3625,-0.1125 -0.175,-0.0625 -0.3375,-0.1375 -0.15,-0.0875 -0.2375,-0.225 z"
         id="path4780"
         inkscape:connector-curvature="0" />
      <path
         d="m 435.17117,709.4043 q 0.1875,0.425 0.1375,0.675 -0.0375,0.2375 -0.2375,0.35 -0.2,0.1125 -0.5125,0.1375 -0.3,0.0125 -0.625,0.0125 -0.325,-0.0125 -0.625,-0.0125 -0.3,-0.0125 -0.4875,0.0375 -0.325,0.0375 -0.675,-0.025 -0.35,-0.075 -0.7125,-0.1125 -0.35,-0.0375 -0.7125,0.0125 -0.3625,0.05 -0.725,0.325 0.075,0.4125 0.3,0.675 0.225,0.2625 0.525,0.45 0.3,0.1875 0.625,0.35 0.3375,0.1625 0.625,0.3625 0.2,-0.2 0.4125,-0.1875 0.225,0.0125 0.4125,0.0375 0.1875,0.0125 0.3125,-0.05 0.125,-0.075 0.125,-0.4375 0.2875,0.075 0.425,-0.05 0.15,-0.1375 0.275,-0.3 0.1375,-0.1625 0.325,-0.2625 0.2,-0.1 0.6,0.0625 l -0.55,1.7375 q -0.15,0 -0.3625,0.025 -0.2,0.025 -0.425,0.1 -0.2125,0.0625 -0.425,0.1875 -0.2125,0.125 -0.375,0.325 -0.375,-0.0375 -0.7875,-0.15 -0.4125,-0.1 -0.8125,-0.275 -0.4,-0.1875 -0.775,-0.45 -0.3625,-0.2625 -0.65,-0.625 -0.4,-0.9125 -0.525,-1.8 -0.125,-0.9 0.2,-1.875 0.4875,-0.575 1.0125,-0.9125 0.525,-0.3375 1.2375,-0.5875 0.6875,-0.125 1.2,0.1125 0.525,0.225 0.925,0.6125 0.4125,0.375 0.725,0.8125 0.3125,0.4375 0.6,0.7125 z m -3.35,-1.4125 q -1.0875,0.1625 -1.6125,1.3 0.375,0.125 0.8125,0.1375 0.4375,0.0125 0.9,0 0.4625,-0.025 0.9375,-0.0375 0.475,-0.025 0.925,0.0125 0,-0.3625 -0.2125,-0.6375 -0.2125,-0.2875 -0.525,-0.4625 -0.3,-0.1875 -0.6375,-0.2625 -0.3375,-0.0875 -0.5875,-0.05 z"
         id="path4782"
         inkscape:connector-curvature="0" />
      <path
         d="m 438.16003,705.0418 q 0.075,0.3625 0.15,0.7625 0.075,0.3875 0.225,0.7125 0.15,0.325 0.4125,0.525 0.2625,0.2 0.7125,0.1625 0.325,-0.175 0.6875,-0.125 0.375,0.0375 0.6125,0.4375 0,0.125 -0.075,0.225 -0.0625,0.1 -0.175,0.1875 -0.1,0.0875 -0.2125,0.175 -0.1,0.075 -0.175,0.1625 -0.1375,-0.1625 -0.3625,-0.2125 -0.225,-0.05 -0.4875,-0.025 -0.2625,0.0125 -0.5375,0.0875 -0.2625,0.0625 -0.475,0.15 0,0.4875 -0.0875,0.9875 -0.0875,0.5 -0.1375,0.9875 -0.05,0.4875 0,0.95 0.05,0.45 0.3375,0.8625 0.2,0.1625 0.4,0.2125 0.2125,0.0375 0.4,0.0125 0.2,-0.0375 0.375,-0.125 0.175,-0.1 0.3375,-0.2125 0.25,-0.2375 0.325,-0.5 0.0875,-0.275 0.175,-0.5125 0.0875,-0.25 0.2375,-0.4375 0.1625,-0.2 0.5625,-0.275 0.1625,0.3625 0.2,0.625 0.0375,0.2625 0.025,0.5125 0,0.2375 -0.025,0.5 -0.025,0.2625 0.025,0.625 -0.2,0.2 -0.5375,0.45 -0.325,0.2375 -0.7125,0.425 -0.375,0.1875 -0.7875,0.2875 -0.4125,0.1 -0.7625,0.025 -0.325,-0.1625 -0.6375,-0.3875 -0.3125,-0.225 -0.55,-0.5 -0.225,-0.2875 -0.35,-0.625 -0.125,-0.35 -0.075,-0.75 -0.0625,-0.275 -0.0375,-0.6 0.025,-0.3375 0.0625,-0.675 0.05,-0.35 0.0625,-0.6875 0.025,-0.3375 -0.0375,-0.6125 -0.0625,-0.2875 -0.25,-0.4875 -0.1875,-0.2125 -0.5625,-0.3 -0.1625,0.0875 -0.3125,0.1125 -0.15,0.025 -0.225,0.1125 l -0.1,-0.975 q 0.475,0.1875 0.75,0.1125 0.2875,-0.0875 0.45,-0.3125 0.1625,-0.2375 0.25,-0.5625 0.0875,-0.325 0.1875,-0.6375 0.1125,-0.3125 0.2625,-0.55 0.1625,-0.25 0.4625,-0.3 z"
         id="path4784"
         inkscape:connector-curvature="0" />
    </g>
    <path
       style="fill:none;fill-rule:evenodd;stroke:#ff0000;stroke-width:0.35433072;stroke-linecap:butt;stroke-linejoin:miter;stroke-miterlimit:4;stroke-dasharray:none;stroke-opacity:1"
       d="m 436.5,716.59862 0,25.26356 -4.5,0"
       id="path4675"
       inkscape:connector-curvature="0" />
    <g
       style="font-style:normal;font-variant:normal;font-weight:normal;font-stretch:normal;font-size:12.5px;line-height:125%;font-family:'My Underwood';-inkscape-font-specification:'My Underwood';letter-spacing:0px;word-spacing:0px;fill:#000000;fill-opacity:1;stroke:none;stroke-width:1px;stroke-linecap:butt;stroke-linejoin:miter;stroke-opacity:1"
       id="text4677">
      <path
         d="m 442.07648,647.75937 q 0,1.05001 0.0625,2.17501 0.075,1.11249 0.475,2.26249 0.1625,-0.1625 0.3125,-0.0875 0.15,0.075 0.2875,0.22501 0.1375,0.14999 0.275,0.2875 0.15,0.13749 0.3125,0.1 0.0375,0.1625 -0.0125,0.2625 -0.0375,0.0875 -0.1375,0.15 -0.0875,0.0625 -0.2,0.11251 -0.1,0.05 -0.175,0.125 l -0.7625,0.11249 q -0.1625,0.4 -0.1125,0.625 0.05,0.2125 0.2125,0.3375 0.1625,0.11251 0.3875,0.17501 0.2375,0.05 0.45,0.13749 0.2125,0.075 0.35,0.225 0.1375,0.13751 0.1125,0.4375 -0.4875,0 -0.9625,0.0625 -0.475,0.0625 -0.9625,0.1125 -0.475,0.05 -0.9875,0.05 -0.5125,0 -1.075,-0.11251 -0.1375,-0.34999 -0.0375,-0.51249 0.1125,-0.17501 0.325,-0.26251 0.225,-0.0875 0.5,-0.13749 0.2875,-0.05 0.4875,-0.1625 0.2125,-0.11251 0.3,-0.32501 0.0875,-0.225 -0.075,-0.65 -0.35,-0.11249 -0.7,-0.1375 -0.35,-0.025 -0.7,-0.0125 -0.3375,0 -0.6625,0.0125 -0.325,0.0125 -0.65,-0.0125 -0.3125,-0.0375 -0.6125,-0.15 -0.2875,-0.11251 -0.55,-0.35 0.4875,-0.6875 0.9375,-1.41251 0.4625,-0.725 0.9125,-1.4375 0.45,-0.725 0.925,-1.42499 0.475,-0.70001 1,-1.35 0.1625,-0.0375 0.2875,0.0125 0.125,0.05 0.2125,0.15001 0.0875,0.0875 0.15,0.19999 0.0625,0.11251 0.1,0.1875 z m -0.8625,1.51251 q -0.2875,0.19999 -0.5375,0.5 -0.25,0.2875 -0.4625,0.625 -0.2,0.32499 -0.3375,0.67499 -0.125,0.35 -0.1625,0.67501 0.225,0.25 0.4875,0.34999 0.2625,0.1 0.5875,0.1 0.35,-0.13749 0.4875,-0.35 0.15,-0.2125 0.1625,-0.4625 0.025,-0.26249 -0.0375,-0.5375 -0.0625,-0.275 -0.1375,-0.55 -0.0625,-0.2875 -0.1,-0.54999 -0.025,-0.26251 0.05,-0.475 z"
         id="path4790"
         inkscape:connector-curvature="0" />
    </g>
    <g
       style="font-style:normal;font-variant:normal;font-weight:normal;font-stretch:normal;font-size:12.5px;line-height:125%;font-family:'My Underwood';-inkscape-font-specification:'My Underwood';letter-spacing:0px;word-spacing:0px;fill:#000000;fill-opacity:1;stroke:none;stroke-width:1px;stroke-linecap:butt;stroke-linejoin:miter;stroke-opacity:1"
       id="text4681">
      <path
         d="m 443.11396,666.16215 q 0.0375,0.475 0.1875,0.95 0.15,0.475 0.225,0.9375 0.075,0.45 -0.0375,0.875 -0.1,0.425 -0.5875,0.775 -0.0875,0 -0.225,-0.125 -0.1375,-0.125 -0.3,-0.225 -0.15,-0.1 -0.3,-0.1 -0.15,0 -0.275,0.2375 l 0.425,0.325 -0.85,0 0.1125,0 0,0.325 -0.1125,0 q -0.1125,-0.2375 -0.2125,-0.3125 -0.1,-0.0875 -0.2125,-0.0625 -0.1,0.0125 -0.2125,0.1 -0.1125,0.075 -0.25,0.1625 -0.1375,0.075 -0.3,0.125 -0.15,0.05 -0.3375,-0.0125 l 0.225,0.425 q -0.2375,-0.1125 -0.425,-0.05 -0.1875,0.05 -0.3375,0.2125 -0.15,0.15 -0.2875,0.35 -0.125,0.2 -0.2375,0.3625 l 0.3125,0.45 q -0.0625,0 -0.1875,-0.0125 -0.125,-0.0125 -0.125,-0.1125 l -0.2125,0.125 q 0.325,0.075 0.7625,0.1875 0.45,0.1 0.9,0.2 0.45,0.1 0.8625,0.175 0.425,0.0625 0.7,0.0625 0.375,0 0.55,-0.075 0.1875,-0.0875 0.2875,-0.2375 0.1,-0.15 0.1625,-0.375 0.0625,-0.225 0.1875,-0.5125 -0.125,-0.0375 -0.1,-0.0875 0.025,-0.0625 0.1,-0.125 0.0875,-0.075 0.175,-0.15 0.1,-0.0875 0.1375,-0.175 0.3375,0.125 0.475,0.3625 0.15,0.2375 0.2,0.5375 0.05,0.3 0.05,0.6625 0,0.35 0.0375,0.7125 -0.1625,0.3625 -0.3875,0.475 -0.225,0.1 -0.4875,0.1375 -0.25,0.025 -0.5,0.075 -0.25,0.0375 -0.4625,0.275 -0.4,-0.1125 -0.8125,-0.3625 -0.4,-0.2625 -0.8125,-0.45 -0.4125,-0.1875 -0.8375,-0.2125 -0.425,-0.0375 -0.8625,0.2875 -0.125,0.1125 -0.2125,0.2125 -0.0875,0.1 -0.175,0.15 -0.0875,0.05 -0.175,0.05 -0.0875,-0.0125 -0.2,-0.1 -0.1625,-0.2 -0.2375,-0.5 -0.075,-0.3 -0.0875,-0.625 0,-0.3375 0.025,-0.6625 0.0375,-0.3375 0.0875,-0.5875 0.1,-0.4875 0.375,-0.825 0.2875,-0.3375 0.6625,-0.575 0.3875,-0.25 0.825,-0.4375 0.45,-0.1875 0.875,-0.3625 0.425,-0.175 0.7875,-0.375 0.3625,-0.2 0.5875,-0.475 0.225,-0.275 0.2625,-0.65 0.05,-0.3875 -0.175,-0.9375 -0.3625,-0.4125 -0.7125,-0.4875 -0.3375,-0.0875 -0.7,-0.0375 -0.35,0.05 -0.725,0.15 -0.375,0.1 -0.7875,0.0625 0.125,0.075 0.25,0.275 0.1375,0.2 0.2,0.4625 0.0625,0.25 0.025,0.5125 -0.025,0.2625 -0.225,0.475 -0.1,0.1625 -0.2375,0.225 -0.125,0.0625 -0.275,0.0625 -0.1375,0 -0.275,-0.05 -0.125,-0.0625 -0.2125,-0.1375 -0.2875,-0.1625 -0.3375,-0.3875 -0.05,-0.2375 0,-0.5 0.0625,-0.2625 0.15,-0.525 0.0875,-0.275 0.0875,-0.5125 0.5625,-0.45 1.1875,-0.6875 0.6375,-0.2375 1.2625,-0.25 0.625,-0.0125 1.225,0.225 0.6,0.225 1.0875,0.7125 z"
         id="path4787"
         inkscape:connector-curvature="0" />
    </g>
    <g
       style="font-style:normal;font-variant:normal;font-weight:normal;font-stretch:normal;font-size:12.5px;line-height:125%;font-family:'My Underwood';-inkscape-font-specification:'My Underwood';letter-spacing:0px;word-spacing:0px;fill:#000000;fill-opacity:1;stroke:none;stroke-width:1px;stroke-linecap:butt;stroke-linejoin:miter;stroke-opacity:1"
       id="text4685">
      <path
         d="m 438.16404,629.61837 q 0.6875,0 1.45,0 0.775,-0.0125 1.525,0.05 0.7625,0.05 1.4625,0.1875 0.7125,0.1375 1.275,0.4375 -0.1125,0.325 -0.2875,0.5875 -0.175,0.2625 -0.3875,0.5125 -0.2125,0.2375 -0.45,0.475 -0.2375,0.225 -0.475,0.4625 0.1,0.2375 0.3,0.4 0.2125,0.1625 0.4375,0.2875 0.225,0.125 0.425,0.2375 0.2125,0.1125 0.325,0.25 0.125,0.1375 0.1125,0.325 0,0.175 -0.2125,0.4375 l 0.5375,0.975 0.1125,-0.1125 q 0.2375,0.075 0.225,0.2375 0,0.15 -0.0875,0.3125 -0.0875,0.1625 -0.1875,0.3125 -0.1,0.1375 -0.0625,0.2125 -0.0375,-0.0375 -0.05,-0.1625 -0.0125,-0.1375 -0.0375,-0.2875 -0.0125,-0.15 -0.0625,-0.2875 -0.05,-0.15 -0.175,-0.225 l -0.1,0 q -0.0875,0.1625 -0.075,0.3625 0.025,0.2 0.075,0.4125 0.05,0.2125 0.0875,0.425 0.05,0.2125 0.025,0.4 -0.0125,0.1875 -0.1375,0.3375 -0.125,0.1375 -0.425,0.225 -0.1875,-0.1375 -0.2875,-0.125 -0.0875,0 -0.15,0.0875 -0.05,0.0875 -0.0875,0.2125 -0.0375,0.125 -0.1,0.2375 -0.05,0.1 -0.15,0.15 -0.0875,0.05 -0.275,-0.025 -0.525,0.2375 -1.0375,0.2875 -0.5125,0.0625 -1,0 -0.4875,-0.0625 -0.95,-0.2125 -0.4625,-0.1375 -0.9,-0.3 -0.3375,-0.2875 -0.5375,-0.625 -0.1875,-0.3375 -0.2375,-0.675 -0.0375,-0.3375 0.0875,-0.6625 0.1375,-0.3375 0.4625,-0.625 0.2,-0.2 0.3125,-0.175 0.125,0.025 0.225,0.125 0.1,0.1 0.2125,0.2 0.125,0.1 0.325,0.0625 -0.0375,0.4 0.0625,0.7875 0.1,0.3875 0.3125,0.6875 0.225,0.2875 0.5625,0.4625 0.3375,0.1625 0.7875,0.125 0.325,-0.125 0.65,-0.275 0.3375,-0.15 0.625,-0.3625 0.2875,-0.2125 0.5125,-0.5 0.2375,-0.3 0.35,-0.7 -0.1125,-0.2 -0.1875,-0.5625 -0.0625,-0.375 -0.2125,-0.7125 -0.15,-0.35 -0.45,-0.5875 -0.2875,-0.2375 -0.8625,-0.2 -0.2375,0.0875 -0.45,0.1375 -0.2,0.05 -0.4,0.1 -0.1875,0.05 -0.375,0.125 -0.1875,0.0625 -0.3875,0.175 -0.1375,-0.2875 -0.05,-0.5625 0.0875,-0.2875 0.2875,-0.55 0.2125,-0.275 0.4625,-0.5375 0.25,-0.2625 0.45,-0.525 0.2125,-0.2625 0.3,-0.525 0.0875,-0.2625 -0.05,-0.5375 -0.625,-0.2125 -0.975,-0.1875 -0.3375,0.025 -0.5375,0.2 -0.1875,0.1625 -0.3,0.4375 -0.1125,0.2625 -0.2625,0.5375 -0.15,0.275 -0.4125,0.5125 -0.25,0.2375 -0.7375,0.3375 -0.125,-0.3625 -0.2375,-0.7625 -0.1,-0.4125 -0.1125,-0.8125 0,-0.4125 0.1125,-0.7875 0.125,-0.375 0.45,-0.6625 z"
         id="path4793"
         inkscape:connector-curvature="0" />
    </g>
    <g
       style="font-style:normal;font-variant:normal;font-weight:normal;font-stretch:normal;font-size:12.5px;line-height:125%;font-family:'My Underwood';-inkscape-font-specification:'My Underwood';letter-spacing:0px;word-spacing:0px;fill:#000000;fill-opacity:1;stroke:none;stroke-width:1px;stroke-linecap:butt;stroke-linejoin:miter;stroke-opacity:1"
       id="text4689">
      <path
         d="m 413.1916,598.18469 q 0.2375,0.275 0.25,0.6125 0.0125,0.325 -0.0375,0.675 -0.05,0.35 -0.075,0.6875 -0.0125,0.325 0.1875,0.6 -0.1625,0.6625 -0.1125,1.3875 0.0625,0.7125 0.225,1.5375 -0.1875,0.1375 -0.2375,0.25 -0.0375,0.1 0,0.2 0.0375,0.1 0.1125,0.2 0.0875,0.0875 0.15,0.1875 0.0625,0.1 0.075,0.2125 0.0125,0.1125 -0.1,0.25 l 1.4125,0.9625 q -0.325,0.4125 -0.6375,0.4875 -0.3125,0.0875 -0.6375,0 -0.3125,-0.075 -0.625,-0.2375 -0.3125,-0.175 -0.6375,-0.275 -0.325,-0.1 -0.6625,-0.05 -0.325,0.05 -0.675,0.4 -0.325,0 -0.6625,-0.1125 -0.3375,-0.1125 -0.6375,-0.3 -0.2875,-0.2 -0.525,-0.45 -0.2375,-0.25 -0.3625,-0.5375 -0.15,-0.525 -0.2375,-1.1375 -0.075,-0.625 -0.0125,-1.225 0.0625,-0.6125 0.3,-1.15 0.2375,-0.5375 0.725,-0.9125 0.0375,-0.2 0.1875,-0.1875 0.1625,0.0125 0.3125,0.05 0.1625,0.0375 0.275,0.0125 0.125,-0.025 0.0875,-0.3 0.1625,0.075 0.4625,0.175 0.3,0.1 0.625,0.15 0.3375,0.05 0.65,0.0125 0.325,-0.0375 0.525,-0.225 -0.075,-0.25 -0.15,-0.5 -0.0625,-0.2625 -0.0625,-0.6 -0.1125,-0.1375 -0.3125,-0.1625 -0.2,-0.0375 -0.425,-0.0375 -0.225,0 -0.4375,0.0125 -0.2,0 -0.3375,-0.0625 -0.125,-0.0625 -0.15,-0.2125 -0.0125,-0.1625 0.1625,-0.4875 l 2.025,0.1 z m -2.9,3.125 q -0.325,0.1625 -0.4625,0.425 -0.125,0.25 -0.175,0.5375 -0.05,0.2875 -0.075,0.6 -0.025,0.3125 -0.15,0.5875 0.125,0.325 0.2625,0.6625 0.15,0.325 0.3625,0.6 0.2125,0.275 0.5,0.4625 0.2875,0.175 0.7,0.2125 0.2,-0.0375 0.325,-0.175 0.1375,-0.15 0.2375,-0.3125 0.1125,-0.175 0.2,-0.3375 0.0875,-0.1625 0.2125,-0.2375 l 0.1125,0.2125 q 0.1625,-0.2875 0.2,-0.5375 0.0375,-0.25 0.0375,-0.475 0,-0.2375 0,-0.4625 0,-0.225 0.0875,-0.475 0.075,-0.525 -0.2,-0.9 -0.2625,-0.375 -0.6625,-0.55 -0.4,-0.1875 -0.8375,-0.15 -0.4375,0.025 -0.675,0.3125 z"
         id="path4796"
         inkscape:connector-curvature="0" />
      <path
         d="m 417.06308,598.29719 q 0.125,-0.0375 0.35,-0.1 0.2375,-0.0625 0.4625,-0.05 0.225,0.0125 0.375,0.1375 0.1625,0.125 0.125,0.45 0.0375,0.1125 0,0.25 -0.0375,0.125 -0.125,0.25 -0.0875,0.125 -0.2,0.225 -0.1125,0.1 -0.2375,0.1375 -0.2125,-0.0875 -0.425,-0.2125 -0.2125,-0.125 -0.3625,-0.2875 -0.1375,-0.1625 -0.15,-0.3625 -0.0125,-0.2 0.1875,-0.4375 z m -0.7625,1.725 q 0.1375,0.1125 0.3375,0.125 0.2,0 0.4125,-0.025 0.225,-0.025 0.45,-0.05 0.225,-0.025 0.4,0.025 0.1875,0.05 0.3125,0.2 0.125,0.15 0.1625,0.4625 -0.05,0.6 -0.0375,1.15 0.0125,0.5375 0.075,1.075 0.0625,0.525 0.15,1.0625 0.1,0.5375 0.225,1.1375 0.1625,0.1625 0.45,0.1875 0.3,0.025 0.575,0.0625 0.2875,0.0375 0.4875,0.1875 0.2125,0.1375 0.2125,0.5375 -0.65,0.0875 -1.2875,0.1875 -0.625,0.1 -1.2625,0.15 -0.6375,0.05 -1.2875,0.0125 -0.65,-0.0375 -1.3375,-0.2375 -0.125,-0.125 -0.1375,-0.2625 0,-0.1375 0.05,-0.2625 0.0625,-0.1375 0.175,-0.25 0.1125,-0.125 0.2375,-0.2 0.4,0.325 0.8,0.2125 0.4125,-0.125 0.8,-0.525 0.175,-0.975 0.1625,-1.875 0,-0.9125 -0.25,-1.8 l -1.8375,-0.325 q -0.125,-0.3625 -0.05,-0.5 0.075,-0.1375 0.25,-0.1875 0.175,-0.05 0.3875,-0.075 0.2125,-0.0375 0.375,-0.2 z"
         id="path4798"
         inkscape:connector-curvature="0" />
      <path
         d="m 426.24511,600.12219 q 0.2,0.125 0.475,0.1125 0.2875,-0.025 0.5625,-0.025 0.2875,0 0.525,0.1 0.25,0.1 0.375,0.4625 -0.625,0.2125 -0.9875,0.6 -0.35,0.375 -0.5625,0.8625 -0.2125,0.475 -0.325,1.0375 -0.1125,0.5625 -0.25,1.15 -0.125,0.575 -0.325,1.1375 -0.2,0.55 -0.575,1.0375 -0.325,0.1625 -0.55,0.1375 -0.225,-0.0125 -0.3875,-0.15 -0.15,-0.1375 -0.25,-0.3625 -0.1,-0.225 -0.1875,-0.475 -0.075,-0.25 -0.1625,-0.4875 -0.075,-0.2375 -0.175,-0.4 -0.1875,-0.2875 -0.3,-0.675 -0.1125,-0.3875 -0.2125,-0.8 -0.0875,-0.4125 -0.2,-0.8 -0.1125,-0.4 -0.3125,-0.725 -0.2,-0.325 -0.525,-0.525 -0.325,-0.2125 -0.825,-0.25 l 0,-0.625 q 0.3625,-0.0875 0.9,-0.2125 0.5375,-0.125 1.075,-0.125 0.5375,-0.0125 0.975,0.2 0.4375,0.2 0.5875,0.7625 -0.15,0 -0.2625,0.0875 -0.1,0.0875 -0.1875,0.2125 -0.0875,0.125 -0.1625,0.2625 -0.0625,0.125 -0.1375,0.2125 0.0875,0.1 0.1375,0.275 0.05,0.175 0.1,0.3625 0.05,0.175 0.1125,0.3375 0.0625,0.1625 0.1625,0.25 0.1125,0.075 0.2625,0.05 0.1625,-0.025 0.4125,-0.2125 0.2125,-0.2375 0.2125,-0.55 0,-0.325 -0.075,-0.6625 -0.075,-0.3375 -0.15,-0.65 -0.075,-0.325 -0.0125,-0.55 0.0625,-0.2375 0.325,-0.35 0.275,-0.1125 0.9,-0.0375 z"
         id="path4800"
         inkscape:connector-curvature="0" />
      <path
         d="m 430.66171,598.29719 q 0.125,-0.0375 0.35,-0.1 0.2375,-0.0625 0.4625,-0.05 0.225,0.0125 0.375,0.1375 0.1625,0.125 0.125,0.45 0.0375,0.1125 0,0.25 -0.0375,0.125 -0.125,0.25 -0.0875,0.125 -0.2,0.225 -0.1125,0.1 -0.2375,0.1375 -0.2125,-0.0875 -0.425,-0.2125 -0.2125,-0.125 -0.3625,-0.2875 -0.1375,-0.1625 -0.15,-0.3625 -0.0125,-0.2 0.1875,-0.4375 z m -0.7625,1.725 q 0.1375,0.1125 0.3375,0.125 0.2,0 0.4125,-0.025 0.225,-0.025 0.45,-0.05 0.225,-0.025 0.4,0.025 0.1875,0.05 0.3125,0.2 0.125,0.15 0.1625,0.4625 -0.05,0.6 -0.0375,1.15 0.0125,0.5375 0.075,1.075 0.0625,0.525 0.15,1.0625 0.1,0.5375 0.225,1.1375 0.1625,0.1625 0.45,0.1875 0.3,0.025 0.575,0.0625 0.2875,0.0375 0.4875,0.1875 0.2125,0.1375 0.2125,0.5375 -0.65,0.0875 -1.2875,0.1875 -0.625,0.1 -1.2625,0.15 -0.6375,0.05 -1.2875,0.0125 -0.65,-0.0375 -1.3375,-0.2375 -0.125,-0.125 -0.1375,-0.2625 0,-0.1375 0.05,-0.2625 0.0625,-0.1375 0.175,-0.25 0.1125,-0.125 0.2375,-0.2 0.4,0.325 0.8,0.2125 0.4125,-0.125 0.8,-0.525 0.175,-0.975 0.1625,-1.875 0,-0.9125 -0.25,-1.8 l -1.8375,-0.325 q -0.125,-0.3625 -0.05,-0.5 0.075,-0.1375 0.25,-0.1875 0.175,-0.05 0.3875,-0.075 0.2125,-0.0375 0.375,-0.2 z"
         id="path4802"
         inkscape:connector-curvature="0" />
      <path
         d="m 439.14374,598.18469 q 0.2375,0.275 0.25,0.6125 0.0125,0.325 -0.0375,0.675 -0.05,0.35 -0.075,0.6875 -0.0125,0.325 0.1875,0.6 -0.1625,0.6625 -0.1125,1.3875 0.0625,0.7125 0.225,1.5375 -0.1875,0.1375 -0.2375,0.25 -0.0375,0.1 0,0.2 0.0375,0.1 0.1125,0.2 0.0875,0.0875 0.15,0.1875 0.0625,0.1 0.075,0.2125 0.0125,0.1125 -0.1,0.25 l 1.4125,0.9625 q -0.325,0.4125 -0.6375,0.4875 -0.3125,0.0875 -0.6375,0 -0.3125,-0.075 -0.625,-0.2375 -0.3125,-0.175 -0.6375,-0.275 -0.325,-0.1 -0.6625,-0.05 -0.325,0.05 -0.675,0.4 -0.325,0 -0.6625,-0.1125 -0.3375,-0.1125 -0.6375,-0.3 -0.2875,-0.2 -0.525,-0.45 -0.2375,-0.25 -0.3625,-0.5375 -0.15,-0.525 -0.2375,-1.1375 -0.075,-0.625 -0.0125,-1.225 0.0625,-0.6125 0.3,-1.15 0.2375,-0.5375 0.725,-0.9125 0.0375,-0.2 0.1875,-0.1875 0.1625,0.0125 0.3125,0.05 0.1625,0.0375 0.275,0.0125 0.125,-0.025 0.0875,-0.3 0.1625,0.075 0.4625,0.175 0.3,0.1 0.625,0.15 0.3375,0.05 0.65,0.0125 0.325,-0.0375 0.525,-0.225 -0.075,-0.25 -0.15,-0.5 -0.0625,-0.2625 -0.0625,-0.6 -0.1125,-0.1375 -0.3125,-0.1625 -0.2,-0.0375 -0.425,-0.0375 -0.225,0 -0.4375,0.0125 -0.2,0 -0.3375,-0.0625 -0.125,-0.0625 -0.15,-0.2125 -0.0125,-0.1625 0.1625,-0.4875 l 2.025,0.1 z m -2.9,3.125 q -0.325,0.1625 -0.4625,0.425 -0.125,0.25 -0.175,0.5375 -0.05,0.2875 -0.075,0.6 -0.025,0.3125 -0.15,0.5875 0.125,0.325 0.2625,0.6625 0.15,0.325 0.3625,0.6 0.2125,0.275 0.5,0.4625 0.2875,0.175 0.7,0.2125 0.2,-0.0375 0.325,-0.175 0.1375,-0.15 0.2375,-0.3125 0.1125,-0.175 0.2,-0.3375 0.0875,-0.1625 0.2125,-0.2375 l 0.1125,0.2125 q 0.1625,-0.2875 0.2,-0.5375 0.0375,-0.25 0.0375,-0.475 0,-0.2375 0,-0.4625 0,-0.225 0.0875,-0.475 0.075,-0.525 -0.2,-0.9 -0.2625,-0.375 -0.6625,-0.55 -0.4,-0.1875 -0.8375,-0.15 -0.4375,0.025 -0.675,0.3125 z"
         id="path4804"
         inkscape:connector-curvature="0" />
      <path
         d="m 447.05273,602.05969 q 0.1875,0.425 0.1375,0.675 -0.0375,0.2375 -0.2375,0.35 -0.2,0.1125 -0.5125,0.1375 -0.3,0.0125 -0.625,0.0125 -0.325,-0.0125 -0.625,-0.0125 -0.3,-0.0125 -0.4875,0.0375 -0.325,0.0375 -0.675,-0.025 -0.35,-0.075 -0.7125,-0.1125 -0.35,-0.0375 -0.7125,0.0125 -0.3625,0.05 -0.725,0.325 0.075,0.4125 0.3,0.675 0.225,0.2625 0.525,0.45 0.3,0.1875 0.625,0.35 0.3375,0.1625 0.625,0.3625 0.2,-0.2 0.4125,-0.1875 0.225,0.0125 0.4125,0.0375 0.1875,0.0125 0.3125,-0.05 0.125,-0.075 0.125,-0.4375 0.2875,0.075 0.425,-0.05 0.15,-0.1375 0.275,-0.3 0.1375,-0.1625 0.325,-0.2625 0.2,-0.1 0.6,0.0625 l -0.55,1.7375 q -0.15,0 -0.3625,0.025 -0.2,0.025 -0.425,0.1 -0.2125,0.0625 -0.425,0.1875 -0.2125,0.125 -0.375,0.325 -0.375,-0.0375 -0.7875,-0.15 -0.4125,-0.1 -0.8125,-0.275 -0.4,-0.1875 -0.775,-0.45 -0.3625,-0.2625 -0.65,-0.625 -0.4,-0.9125 -0.525,-1.8 -0.125,-0.9 0.2,-1.875 0.4875,-0.575 1.0125,-0.9125 0.525,-0.3375 1.2375,-0.5875 0.6875,-0.125 1.2,0.1125 0.525,0.225 0.925,0.6125 0.4125,0.375 0.725,0.8125 0.3125,0.4375 0.6,0.7125 z m -3.35,-1.4125 q -1.0875,0.1625 -1.6125,1.3 0.375,0.125 0.8125,0.1375 0.4375,0.0125 0.9,0 0.4625,-0.025 0.9375,-0.0375 0.475,-0.025 0.925,0.0125 0,-0.3625 -0.2125,-0.6375 -0.2125,-0.2875 -0.525,-0.4625 -0.3,-0.1875 -0.6375,-0.2625 -0.3375,-0.0875 -0.5875,-0.05 z"
         id="path4806"
         inkscape:connector-curvature="0" />
      <path
         d="m 448.0916,600.59719 q 0,-0.35 0.1625,-0.55 0.175,-0.2125 0.4375,-0.2875 0.275,-0.0875 0.6,-0.0625 0.3375,0.025 0.6625,0.1375 0.325,0.1 0.6,0.275 0.275,0.175 0.4375,0.3875 0.975,-0.725 1.825,-0.675 0.85,0.05 1.7375,0.775 0.1625,0.2125 0.175,0.425 0.025,0.2 0,0.425 -0.0125,0.225 -0.025,0.475 -0.0125,0.2375 0.075,0.5125 -0.25,0.05 -0.4875,0.1 -0.2375,0.0375 -0.4625,0.0375 -0.225,-0.0125 -0.425,-0.1125 -0.1875,-0.1 -0.35,-0.35 l -0.4375,-0.85 q -0.575,0.075 -1.0625,0.45 -0.4875,0.375 -0.6625,0.95 0.0375,0.25 0,0.575 -0.0375,0.325 -0.05,0.6875 -0.0125,0.3625 0.0625,0.7375 0.075,0.3625 0.325,0.6875 0.1625,0 0.4125,0.0125 0.2625,0.0125 0.5125,0.075 0.25,0.05 0.4375,0.1875 0.2,0.1375 0.2375,0.375 -0.1125,0.2875 -0.35,0.3375 -0.225,0.0625 -0.4875,0.05 -0.2625,-0.0125 -0.5375,-0.0125 -0.2625,0 -0.4625,0.1625 -0.325,-0.125 -0.7,-0.1375 -0.375,0 -0.775,0 -0.3875,0 -0.7875,-0.05 -0.3875,-0.0375 -0.7375,-0.25 -0.125,-0.1125 -0.075,-0.25 0.0625,-0.1375 0.1875,-0.25 0.1375,-0.125 0.2875,-0.225 0.1625,-0.1 0.2375,-0.1375 0.2,0.1625 0.2875,0.125 0.0875,-0.05 0.15,-0.15 0.075,-0.1 0.175,-0.175 0.1125,-0.0875 0.3625,-0.0125 0.1625,-0.4875 0.2125,-0.975 0.05,-0.4875 0.0375,-0.9625 -0.0125,-0.4875 -0.0625,-0.9625 -0.0375,-0.4875 -0.075,-0.9625 -0.1125,-0.1125 -0.275,-0.125 -0.15,-0.025 -0.325,0 -0.1625,0.0125 -0.3375,0.0375 -0.175,0.025 -0.325,0 -0.1375,-0.025 -0.2375,-0.125 -0.1,-0.1 -0.125,-0.35 z"
         id="path4808"
         inkscape:connector-curvature="0" />
    </g>
    <path
       style="fill:none;fill-rule:evenodd;stroke:#ff0000;stroke-width:0.35433072;stroke-linecap:butt;stroke-linejoin:miter;stroke-miterlimit:4;stroke-dasharray:none;stroke-opacity:1"
       d="m 429.75,651.86218 4.5,0"
       id="path4695"
       inkscape:connector-curvature="0" />
    <path
       style="fill:none;fill-rule:evenodd;stroke:#ff0000;stroke-width:0.35433072;stroke-linecap:butt;stroke-linejoin:miter;stroke-miterlimit:4;stroke-dasharray:none;stroke-opacity:1"
       d="m 434.25,633.86218 -9,0"
       id="path4697"
       inkscape:connector-curvature="0" />
    <path
       style="fill:none;fill-rule:evenodd;stroke:#ff0000;stroke-width:0.35433072;stroke-linecap:butt;stroke-linejoin:miter;stroke-miterlimit:4;stroke-dasharray:none;stroke-opacity:1"
       d="m 434.25,669.86218 -9,0"
       id="path4699"
       inkscape:connector-curvature="0" />
    <path
       style="fill:none;fill-rule:evenodd;stroke:#ff0000;stroke-width:0.35433072;stroke-linecap:butt;stroke-linejoin:miter;stroke-miterlimit:4;stroke-dasharray:none;stroke-opacity:1"
       d="m 447.57027,633.86218 11.49296,0"
       id="path4701"
       inkscape:connector-curvature="0" />
    <g
       style="font-style:normal;font-variant:normal;font-weight:normal;font-stretch:normal;font-size:20px;line-height:125%;font-family:'My Underwood';-inkscape-font-specification:'My Underwood';letter-spacing:0px;word-spacing:0px;fill:#000000;fill-opacity:1;stroke:none;stroke-width:1px;stroke-linecap:butt;stroke-linejoin:miter;stroke-opacity:1"
       id="text4705">
      <path
         d="m 409.72984,531.05818 q 1.14,0 2.32,-0.16 1.18,-0.16 2.34,-0.16 1.16,-0.02 2.24,0.24 1.1,0.26 2.06,1.1 -0.04,0.26 -0.42,0.34 -0.38,0.06 -0.88,0.06 -0.48,-0.02 -0.98,-0.02 -0.5,-0.02 -0.8,0.08 -0.28,0.1 -0.26,0.4 0.02,0.28 0.58,0.88 -0.52,-0.26 -0.76,-0.26 -0.22,0 -0.3,0.18 -0.06,0.16 -0.04,0.44 0.04,0.28 0.06,0.58 0.02,0.3 -0.04,0.58 -0.04,0.26 -0.3,0.38 0.3,0.12 0.32,0.3 0.04,0.16 -0.04,0.34 -0.08,0.16 -0.22,0.34 -0.14,0.18 -0.2,0.34 -0.04,0.14 0.08,0.26 0.12,0.1 0.56,0.14 -0.18,0.46 -0.2,0.92 -0.02,0.46 0.08,0.92 0.1,0.44 0.26,0.9 0.18,0.44 0.38,0.88 -0.52,0 -0.52,0.52 0.22,0.6 0.64,0.86 0.44,0.26 0.92,0.36 0.48,0.1 0.9,0.14 0.44,0.02 0.66,0.18 0.22,0.14 0.12,0.5 -0.08,0.34 -0.64,1.08 l -7.6,0 -0.5,-0.72 q 0.26,-0.32 0.54,-0.62 0.3,-0.3 0.66,-0.5 0.38,-0.22 0.84,-0.3 0.46,-0.08 1.04,0.06 0.2,-0.9 0.26,-1.94 0.08,-1.04 0.06,-2.12 0,-1.1 -0.1,-2.18 -0.08,-1.08 -0.22,-2.04 0.4,-0.2 0.4,-0.38 0,-0.2 -0.14,-0.4 -0.14,-0.22 -0.32,-0.44 -0.16,-0.24 -0.1,-0.5 l -2.74,-0.38 0,-1.18 0,0 z"
         id="path4823"
         inkscape:connector-curvature="0" />
      <path
         d="m 420.0814,531.05818 q 1.14,0 2.32,-0.16 1.18,-0.16 2.34,-0.16 1.16,-0.02 2.24,0.24 1.1,0.26 2.06,1.1 -0.04,0.26 -0.42,0.34 -0.38,0.06 -0.88,0.06 -0.48,-0.02 -0.98,-0.02 -0.5,-0.02 -0.8,0.08 -0.28,0.1 -0.26,0.4 0.02,0.28 0.58,0.88 -0.52,-0.26 -0.76,-0.26 -0.22,0 -0.3,0.18 -0.06,0.16 -0.04,0.44 0.04,0.28 0.06,0.58 0.02,0.3 -0.04,0.58 -0.04,0.26 -0.3,0.38 0.3,0.12 0.32,0.3 0.04,0.16 -0.04,0.34 -0.08,0.16 -0.22,0.34 -0.14,0.18 -0.2,0.34 -0.04,0.14 0.08,0.26 0.12,0.1 0.56,0.14 -0.18,0.46 -0.2,0.92 -0.02,0.46 0.08,0.92 0.1,0.44 0.26,0.9 0.18,0.44 0.38,0.88 -0.52,0 -0.52,0.52 0.22,0.6 0.64,0.86 0.44,0.26 0.92,0.36 0.48,0.1 0.9,0.14 0.44,0.02 0.66,0.18 0.22,0.14 0.12,0.5 -0.08,0.34 -0.64,1.08 l -7.6,0 -0.5,-0.72 q 0.26,-0.32 0.54,-0.62 0.3,-0.3 0.66,-0.5 0.38,-0.22 0.84,-0.3 0.46,-0.08 1.04,0.06 0.2,-0.9 0.26,-1.94 0.08,-1.04 0.06,-2.12 0,-1.1 -0.1,-2.18 -0.08,-1.08 -0.22,-2.04 0.4,-0.2 0.4,-0.38 0,-0.2 -0.14,-0.4 -0.14,-0.22 -0.32,-0.44 -0.16,-0.24 -0.1,-0.5 l -2.74,-0.38 0,-1.18 0,0 z"
         id="path4825"
         inkscape:connector-curvature="0" />
    </g>
    <g
       style="font-style:normal;font-variant:normal;font-weight:normal;font-stretch:normal;font-size:20px;line-height:125%;font-family:'My Underwood';-inkscape-font-specification:'My Underwood';letter-spacing:0px;word-spacing:0px;fill:#000000;fill-opacity:1;stroke:none;stroke-width:1px;stroke-linecap:butt;stroke-linejoin:miter;stroke-opacity:1"
       id="text4709">
      <path
         d="m 417.72456,547.84712 q 1.14,0 2.32,-0.16 1.18,-0.16 2.34,-0.16 1.16,-0.02 2.24,0.24 1.1,0.26 2.06,1.1 -0.04,0.26 -0.42,0.34 -0.38,0.06 -0.88,0.06 -0.48,-0.02 -0.98,-0.02 -0.5,-0.02 -0.8,0.08 -0.28,0.1 -0.26,0.4 0.02,0.28 0.58,0.88 -0.52,-0.26 -0.76,-0.26 -0.22,0 -0.3,0.18 -0.06,0.16 -0.04,0.44 0.04,0.28 0.06,0.58 0.02,0.3 -0.04,0.58 -0.04,0.26 -0.3,0.38 0.3,0.12 0.32,0.3 0.04,0.16 -0.04,0.34 -0.08,0.16 -0.22,0.34 -0.14,0.18 -0.2,0.34 -0.04,0.14 0.08,0.26 0.12,0.1 0.56,0.14 -0.18,0.46 -0.2,0.92 -0.02,0.46 0.08,0.92 0.1,0.44 0.26,0.9 0.18,0.44 0.38,0.88 -0.52,0 -0.52,0.52 0.22,0.6 0.64,0.86 0.44,0.26 0.92,0.36 0.48,0.1 0.9,0.14 0.44,0.02 0.66,0.18 0.22,0.14 0.12,0.5 -0.08,0.34 -0.64,1.08 l -7.6,0 -0.5,-0.72 q 0.26,-0.32 0.54,-0.62 0.3,-0.3 0.66,-0.5 0.38,-0.22 0.84,-0.3 0.46,-0.08 1.04,0.06 0.2,-0.9 0.26,-1.94 0.08,-1.04 0.06,-2.12 0,-1.1 -0.1,-2.18 -0.08,-1.08 -0.22,-2.04 0.4,-0.2 0.4,-0.38 0,-0.2 -0.14,-0.4 -0.14,-0.22 -0.32,-0.44 -0.16,-0.24 -0.1,-0.5 l -2.74,-0.38 0,-1.18 0,0 z"
         id="path4816"
         inkscape:connector-curvature="0" />
      <path
         d="m 428.07612,547.84712 q 1.14,0 2.32,-0.16 1.18,-0.16 2.34,-0.16 1.16,-0.02 2.24,0.24 1.1,0.26 2.06,1.1 -0.04,0.26 -0.42,0.34 -0.38,0.06 -0.88,0.06 -0.48,-0.02 -0.98,-0.02 -0.5,-0.02 -0.8,0.08 -0.28,0.1 -0.26,0.4 0.02,0.28 0.58,0.88 -0.52,-0.26 -0.76,-0.26 -0.22,0 -0.3,0.18 -0.06,0.16 -0.04,0.44 0.04,0.28 0.06,0.58 0.02,0.3 -0.04,0.58 -0.04,0.26 -0.3,0.38 0.3,0.12 0.32,0.3 0.04,0.16 -0.04,0.34 -0.08,0.16 -0.22,0.34 -0.14,0.18 -0.2,0.34 -0.04,0.14 0.08,0.26 0.12,0.1 0.56,0.14 -0.18,0.46 -0.2,0.92 -0.02,0.46 0.08,0.92 0.1,0.44 0.26,0.9 0.18,0.44 0.38,0.88 -0.52,0 -0.52,0.52 0.22,0.6 0.64,0.86 0.44,0.26 0.92,0.36 0.48,0.1 0.9,0.14 0.44,0.02 0.66,0.18 0.22,0.14 0.12,0.5 -0.08,0.34 -0.64,1.08 l -7.6,0 -0.5,-0.72 q 0.26,-0.32 0.54,-0.62 0.3,-0.3 0.66,-0.5 0.38,-0.22 0.84,-0.3 0.46,-0.08 1.04,0.06 0.2,-0.9 0.26,-1.94 0.08,-1.04 0.06,-2.12 0,-1.1 -0.1,-2.18 -0.08,-1.08 -0.22,-2.04 0.4,-0.2 0.4,-0.38 0,-0.2 -0.14,-0.4 -0.14,-0.22 -0.32,-0.44 -0.16,-0.24 -0.1,-0.5 l -2.74,-0.38 0,-1.18 0,0 z"
         id="path4818"
         inkscape:connector-curvature="0" />
      <path
         d="m 438.42769,547.84712 q 1.14,0 2.32,-0.16 1.18,-0.16 2.34,-0.16 1.16,-0.02 2.24,0.24 1.1,0.26 2.06,1.1 -0.04,0.26 -0.42,0.34 -0.38,0.06 -0.88,0.06 -0.48,-0.02 -0.98,-0.02 -0.5,-0.02 -0.8,0.08 -0.28,0.1 -0.26,0.4 0.02,0.28 0.58,0.88 -0.52,-0.26 -0.76,-0.26 -0.22,0 -0.3,0.18 -0.06,0.16 -0.04,0.44 0.04,0.28 0.06,0.58 0.02,0.3 -0.04,0.58 -0.04,0.26 -0.3,0.38 0.3,0.12 0.32,0.3 0.04,0.16 -0.04,0.34 -0.08,0.16 -0.22,0.34 -0.14,0.18 -0.2,0.34 -0.04,0.14 0.08,0.26 0.12,0.1 0.56,0.14 -0.18,0.46 -0.2,0.92 -0.02,0.46 0.08,0.92 0.1,0.44 0.26,0.9 0.18,0.44 0.38,0.88 -0.52,0 -0.52,0.52 0.22,0.6 0.64,0.86 0.44,0.26 0.92,0.36 0.48,0.1 0.9,0.14 0.44,0.02 0.66,0.18 0.22,0.14 0.12,0.5 -0.08,0.34 -0.64,1.08 l -7.6,0 -0.5,-0.72 q 0.26,-0.32 0.54,-0.62 0.3,-0.3 0.66,-0.5 0.38,-0.22 0.84,-0.3 0.46,-0.08 1.04,0.06 0.2,-0.9 0.26,-1.94 0.08,-1.04 0.06,-2.12 0,-1.1 -0.1,-2.18 -0.08,-1.08 -0.22,-2.04 0.4,-0.2 0.4,-0.38 0,-0.2 -0.14,-0.4 -0.14,-0.22 -0.32,-0.44 -0.16,-0.24 -0.1,-0.5 l -2.74,-0.38 0,-1.18 0,0 z"
         id="path4820"
         inkscape:connector-curvature="0" />
    </g>
    <g
       style="font-style:normal;font-variant:normal;font-weight:normal;font-stretch:normal;font-size:20px;line-height:125%;font-family:'My Underwood';-inkscape-font-specification:'My Underwood';letter-spacing:0px;word-spacing:0px;fill:#000000;fill-opacity:1;stroke:none;stroke-width:1px;stroke-linecap:butt;stroke-linejoin:miter;stroke-opacity:1"
       id="text4713">
      <path
         d="m 434.11375,564.63606 q 1.14,0 2.32,-0.16 1.18,-0.16 2.34,-0.16 1.16,-0.02 2.24,0.24 1.1,0.26 2.06,1.1 -0.04,0.26 -0.42,0.34 -0.38,0.06 -0.88,0.06 -0.48,-0.02 -0.98,-0.02 -0.5,-0.02 -0.8,0.08 -0.28,0.1 -0.26,0.4 0.02,0.28 0.58,0.88 -0.52,-0.26 -0.76,-0.26 -0.22,0 -0.3,0.18 -0.06,0.16 -0.04,0.44 0.04,0.28 0.06,0.58 0.02,0.3 -0.04,0.58 -0.04,0.26 -0.3,0.38 0.3,0.12 0.32,0.3 0.04,0.16 -0.04,0.34 -0.08,0.16 -0.22,0.34 -0.14,0.18 -0.2,0.34 -0.04,0.14 0.08,0.26 0.12,0.1 0.56,0.14 -0.18,0.46 -0.2,0.92 -0.02,0.46 0.08,0.92 0.1,0.44 0.26,0.9 0.18,0.44 0.38,0.88 -0.52,0 -0.52,0.52 0.22,0.6 0.64,0.86 0.44,0.26 0.92,0.36 0.48,0.1 0.9,0.14 0.44,0.02 0.66,0.18 0.22,0.14 0.12,0.5 -0.08,0.34 -0.64,1.08 l -7.6,0 -0.5,-0.72 q 0.26,-0.32 0.54,-0.62 0.3,-0.3 0.66,-0.5 0.38,-0.22 0.84,-0.3 0.46,-0.08 1.04,0.06 0.2,-0.9 0.26,-1.94 0.08,-1.04 0.06,-2.12 0,-1.1 -0.1,-2.18 -0.08,-1.08 -0.22,-2.04 0.4,-0.2 0.4,-0.38 0,-0.2 -0.14,-0.4 -0.14,-0.22 -0.32,-0.44 -0.16,-0.24 -0.1,-0.5 l -2.74,-0.38 0,-1.18 0,0 z"
         id="path4811"
         inkscape:connector-curvature="0" />
      <path
         d="m 456.36531,565.19606 q -0.12,0.34 -0.42,0.52 -0.28,0.16 -0.64,0.26 -0.36,0.08 -0.74,0.18 -0.38,0.08 -0.68,0.26 -0.3,0.16 -0.48,0.48 -0.16,0.32 -0.12,0.88 -0.2,1.42 -0.4,2.78 -0.2,1.36 -0.52,2.64 -0.32,1.26 -0.84,2.46 -0.52,1.2 -1.36,2.3 -0.82,-0.9 -1.28,-1.98 -0.44,-1.08 -0.74,-2.22 -0.3,-1.16 -0.56,-2.32 -0.26,-1.18 -0.68,-2.26 -0.4,-1.08 -1.08,-2.02 -0.68,-0.94 -1.84,-1.64 0.06,-0.38 0.36,-0.62 0.3,-0.24 0.72,-0.38 0.42,-0.16 0.86,-0.24 0.46,-0.08 0.8,-0.14 0.58,0.4 1.12,0.4 0.54,0 0.98,0 0.46,0 0.8,0.2 0.34,0.2 0.54,0.98 -0.84,-0.14 -1.28,0.22 -0.44,0.36 -0.6,0.94 -0.14,0.58 -0.04,1.26 0.1,0.68 0.36,1.2 -0.12,0.26 0.06,0.46 0.18,0.2 0.36,0.38 0.18,0.16 0.2,0.34 0.02,0.16 -0.44,0.34 l 1.92,1.58 q -0.08,-0.84 0.2,-1.52 0.28,-0.68 0.6,-1.36 0.32,-0.68 0.54,-1.44 0.22,-0.76 0.02,-1.74 -0.2,-0.06 -0.46,-0.14 -0.26,-0.08 -0.5,-0.24 -0.22,-0.16 -0.36,-0.42 -0.12,-0.28 -0.04,-0.72 0.2,-0.46 0.64,-0.54 0.46,-0.08 1.02,-0.06 0.56,0.02 1.16,-0.02 0.6,-0.04 1.12,-0.44 l 1.72,1.4 z"
         id="path4813"
         inkscape:connector-curvature="0" />
    </g>
    <path
       style="fill:none;fill-rule:evenodd;stroke:#ff0000;stroke-width:0.35433072;stroke-linecap:butt;stroke-linejoin:miter;stroke-miterlimit:4;stroke-dasharray:none;stroke-opacity:1"
       d="m 456.75,602.36218 2.25,0"
       id="path4717"
       inkscape:connector-curvature="0" />
    <path
       style="fill:none;fill-rule:evenodd;stroke:#ff0000;stroke-width:0.35433072;stroke-linecap:butt;stroke-linejoin:miter;stroke-miterlimit:4;stroke-dasharray:none;stroke-opacity:1"
       d="m 459,602.36218 0,67.50001"
       id="path4719"
       inkscape:connector-curvature="0" />
    <path
       style="fill:none;fill-rule:evenodd;stroke:#ff0000;stroke-width:0.35433072;stroke-linecap:butt;stroke-linejoin:miter;stroke-miterlimit:4;stroke-dasharray:none;stroke-opacity:1"
       d="m 447.75,651.86218 11.34767,0"
       id="path4721"
       inkscape:connector-curvature="0" />
    <path
       inkscape:connector-curvature="0"
       id="path4723"
       d="m 447.94987,669.86218 11.34767,0"
       style="fill:none;fill-rule:evenodd;stroke:#ff0000;stroke-width:0.35433072;stroke-linecap:butt;stroke-linejoin:miter;stroke-miterlimit:4;stroke-dasharray:none;stroke-opacity:1" />
  </g>
  <g
     inkscape:groupmode="layer"
     id="layer5"
     inkscape:label="Knobs outlines"
     style="display:none">
    <circle
       id="path3884"
       style="display:inline;fill:none;stroke:#000000;stroke-width:0.35433072;stroke-miterlimit:4;stroke-dasharray:none;stroke-opacity:1"
       cx="666"
       cy="717.11218"
       r="26.427053" />
    <circle
       r="26.427053"
       cy="717.11218"
       cx="686.25"
       style="display:inline;fill:none;stroke:#000000;stroke-width:0.35433072;stroke-miterlimit:4;stroke-dasharray:none;stroke-opacity:1"
       id="circle5445" />
    <circle
       id="circle5447"
       style="display:inline;fill:none;stroke:#000000;stroke-width:0.35433072;stroke-miterlimit:4;stroke-dasharray:none;stroke-opacity:1"
       cx="677.25"
       cy="730.61218"
       r="26.427053" />
    <circle
       r="26.427053"
       cy="741.86218"
       cx="657"
       style="display:inline;fill:none;stroke:#000000;stroke-width:0.35433072;stroke-miterlimit:4;stroke-dasharray:none;stroke-opacity:1"
       id="circle5449" />
    <circle
       id="circle5523"
       style="display:inline;fill:none;stroke:#000000;stroke-width:0.22416133;stroke-miterlimit:4;stroke-dasharray:none;stroke-opacity:1"
       cx="432"
       cy="854.36218"
       r="16.718628" />
    <circle
       r="16.718628"
       cy="899.36218"
       cx="432"
       style="display:inline;fill:none;stroke:#000000;stroke-width:0.22416133;stroke-miterlimit:4;stroke-dasharray:none;stroke-opacity:1"
       id="circle5529" />
    <circle
       id="circle5540"
       style="display:inline;fill:none;stroke:#000000;stroke-width:0.22416133;stroke-miterlimit:4;stroke-dasharray:none;stroke-opacity:1"
       cx="432"
       cy="809.36218"
       r="16.718628" />
    <circle
       r="14.078845"
       cy="651.86218"
       cx="414"
       style="display:inline;fill:none;stroke:#000000;stroke-width:0.18876743;stroke-miterlimit:4;stroke-dasharray:none;stroke-opacity:1"
       id="circle5550" />
  </g>
</svg>
